<?xml version="1.0" encoding="UTF-8" standalone="no"?>
<!DOCTYPE svg PUBLIC "-//W3C//DTD SVG 1.1//EN"
 "http://www.w3.org/Graphics/SVG/1.1/DTD/svg11.dtd">
<!-- Generated by graphviz version 13.1.0 (20250701.0955)
 -->
<!-- Title: src/driver_as608.h Pages: 1 -->
<svg width="683pt" height="232pt"
 viewBox="0.00 0.00 683.00 232.00" xmlns="http://www.w3.org/2000/svg" xmlns:xlink="http://www.w3.org/1999/xlink">
<g id="graph0" class="graph" transform="scale(1 1) rotate(0) translate(4 228)">
<title>src/driver_as608.h</title>
<!-- Node1 -->
<g id="Node000001" class="node">
<title>Node1</title>
<g id="a_Node000001"><a xlink:title="driver as608 header file">
<polygon fill="#999999" stroke="#666666" points="423.75,-224 327.5,-224 327.5,-204 423.75,-204 423.75,-224"/>
<text xml:space="preserve" text-anchor="middle" x="375.62" y="-210.5" font-family="Helvetica,sans-Serif" font-size="10.00">src/driver_as608.h</text>
</a>
</g>
</g>
<!-- Node2 -->
<g id="Node000002" class="node">
<title>Node2</title>
<g id="a_Node000002"><a xlink:href="driver__as608__interface_8h.html" target="_top" xlink:title="driver as608 interface header file">
<polygon fill="white" stroke="#666666" points="370.62,-168 258.62,-168 258.62,-136 370.62,-136 370.62,-168"/>
<text xml:space="preserve" text-anchor="start" x="266.62" y="-154.5" font-family="Helvetica,sans-Serif" font-size="10.00">interface/driver_as608</text>
<text xml:space="preserve" text-anchor="middle" x="314.62" y="-142.5" font-family="Helvetica,sans-Serif" font-size="10.00">_interface.h</text>
</a>
</g>
</g>
<!-- Node1&#45;&gt;Node2 -->
<g id="edge1_Node000001_Node000002" class="edge">
<title>Node1&#45;&gt;Node2</title>
<g id="a_edge1_Node000001_Node000002"><a xlink:title=" ">
<path fill="none" stroke="#63b8ff" d="M357.98,-195.65C349.14,-186.95 338.53,-176.51 330.02,-168.14"/>
<polygon fill="#63b8ff" stroke="#63b8ff" points="355.43,-198.05 365.01,-202.56 360.34,-193.06 355.43,-198.05"/>
</a>
</g>
</g>
<!-- Node12 -->
<g id="Node000012" class="node">
<title>Node12</title>
<g id="a_Node000012"><a xlink:href="driver__as608_8c.html" target="_top" xlink:title="driver as608 source file">
<polygon fill="white" stroke="#666666" points="484.75,-162 388.5,-162 388.5,-142 484.75,-142 484.75,-162"/>
<text xml:space="preserve" text-anchor="middle" x="436.62" y="-148.5" font-family="Helvetica,sans-Serif" font-size="10.00">src/driver_as608.c</text>
</a>
</g>
</g>
<!-- Node1&#45;&gt;Node12 -->
<g id="edge11_Node000001_Node000012" class="edge">
<title>Node1&#45;&gt;Node12</title>
<g id="a_edge11_Node000001_Node000012"><a xlink:title=" ">
<path fill="none" stroke="#63b8ff" d="M393.34,-195.58C404.46,-184.63 418.36,-170.97 427.36,-162.11"/>
<polygon fill="#63b8ff" stroke="#63b8ff" points="390.91,-193.06 386.24,-202.56 395.82,-198.05 390.91,-193.06"/>
</a>
</g>
</g>
<!-- Node3 -->
<g id="Node000003" class="node">
<title>Node3</title>
<g id="a_Node000003"><a xlink:href="driver__as608__advance_8h.html" target="_top" xlink:title="driver as608 advance header file">
<polygon fill="white" stroke="#666666" points="111.25,-100 0,-100 0,-68 111.25,-68 111.25,-100"/>
<text xml:space="preserve" text-anchor="start" x="8" y="-86.5" font-family="Helvetica,sans-Serif" font-size="10.00">example/driver_as608</text>
<text xml:space="preserve" text-anchor="middle" x="55.62" y="-74.5" font-family="Helvetica,sans-Serif" font-size="10.00">_advance.h</text>
</a>
</g>
</g>
<!-- Node2&#45;&gt;Node3 -->
<g id="edge2_Node000002_Node000003" class="edge">
<title>Node2&#45;&gt;Node3</title>
<g id="a_edge2_Node000002_Node000003"><a xlink:title=" ">
<path fill="none" stroke="#63b8ff" d="M247.42,-133.87C205.27,-123.13 151.57,-109.45 111.71,-99.29"/>
<polygon fill="#63b8ff" stroke="#63b8ff" points="246.4,-137.23 256.96,-136.31 248.13,-130.44 246.4,-137.23"/>
</a>
</g>
</g>
<!-- Node5 -->
<g id="Node000005" class="node">
<title>Node5</title>
<g id="a_Node000005"><a xlink:href="driver__as608__basic_8h.html" target="_top" xlink:title="driver as608 basic header file">
<polygon fill="white" stroke="#666666" points="240.25,-100 129,-100 129,-68 240.25,-68 240.25,-100"/>
<text xml:space="preserve" text-anchor="start" x="137" y="-86.5" font-family="Helvetica,sans-Serif" font-size="10.00">example/driver_as608</text>
<text xml:space="preserve" text-anchor="middle" x="184.62" y="-74.5" font-family="Helvetica,sans-Serif" font-size="10.00">_basic.h</text>
</a>
</g>
</g>
<!-- Node2&#45;&gt;Node5 -->
<g id="edge4_Node000002_Node000005" class="edge">
<title>Node2&#45;&gt;Node5</title>
<g id="a_edge4_Node000002_Node000005"><a xlink:title=" ">
<path fill="none" stroke="#63b8ff" d="M273.93,-130.34C254.84,-120.65 232.48,-109.3 214.91,-100.38"/>
<polygon fill="#63b8ff" stroke="#63b8ff" points="272.3,-133.43 282.8,-134.84 275.46,-127.19 272.3,-133.43"/>
</a>
</g>
</g>
<!-- Node7 -->
<g id="Node000007" class="node">
<title>Node7</title>
<g id="a_Node000007"><a xlink:href="driver__as608__interface__template_8c.html" target="_top" xlink:title="driver as608 interface template source file">
<polygon fill="white" stroke="#666666" points="370.62,-100 258.62,-100 258.62,-68 370.62,-68 370.62,-100"/>
<text xml:space="preserve" text-anchor="start" x="266.62" y="-86.5" font-family="Helvetica,sans-Serif" font-size="10.00">interface/driver_as608</text>
<text xml:space="preserve" text-anchor="middle" x="314.62" y="-74.5" font-family="Helvetica,sans-Serif" font-size="10.00">_interface_template.c</text>
</a>
</g>
</g>
<!-- Node2&#45;&gt;Node7 -->
<g id="edge6_Node000002_Node000007" class="edge">
<title>Node2&#45;&gt;Node7</title>
<g id="a_edge6_Node000002_Node000007"><a xlink:title=" ">
<path fill="none" stroke="#63b8ff" d="M314.62,-124.31C314.62,-116.12 314.62,-107.38 314.62,-100.22"/>
<polygon fill="#63b8ff" stroke="#63b8ff" points="311.13,-124.18 314.63,-134.18 318.13,-124.18 311.13,-124.18"/>
</a>
</g>
</g>
<!-- Node8 -->
<g id="Node000008" class="node">
<title>Node8</title>
<g id="a_Node000008"><a xlink:href="driver__as608__fingerprint__test_8h.html" target="_top" xlink:title="driver as608 fingerprint test header file">
<polygon fill="white" stroke="#666666" points="528.12,-100 389.12,-100 389.12,-68 528.12,-68 528.12,-100"/>
<text xml:space="preserve" text-anchor="start" x="397.12" y="-86.5" font-family="Helvetica,sans-Serif" font-size="10.00">test/driver_as608_fingerprint</text>
<text xml:space="preserve" text-anchor="middle" x="458.62" y="-74.5" font-family="Helvetica,sans-Serif" font-size="10.00">_test.h</text>
</a>
</g>
</g>
<!-- Node2&#45;&gt;Node8 -->
<g id="edge7_Node000002_Node000008" class="edge">
<title>Node2&#45;&gt;Node8</title>
<g id="a_edge7_Node000002_Node000008"><a xlink:title=" ">
<path fill="none" stroke="#63b8ff" d="M358.83,-130.74C380.16,-120.96 405.34,-109.42 425.07,-100.38"/>
<polygon fill="#63b8ff" stroke="#63b8ff" points="357.39,-127.55 349.76,-134.9 360.31,-133.91 357.39,-127.55"/>
</a>
</g>
</g>
<!-- Node10 -->
<g id="Node000010" class="node">
<title>Node10</title>
<g id="a_Node000010"><a xlink:href="driver__as608__register__test_8h.html" target="_top" xlink:title="driver as608 register test header file">
<polygon fill="white" stroke="#666666" points="674.88,-100 546.38,-100 546.38,-68 674.88,-68 674.88,-100"/>
<text xml:space="preserve" text-anchor="start" x="554.38" y="-86.5" font-family="Helvetica,sans-Serif" font-size="10.00">test/driver_as608_register</text>
<text xml:space="preserve" text-anchor="middle" x="610.62" y="-74.5" font-family="Helvetica,sans-Serif" font-size="10.00">_test.h</text>
</a>
</g>
</g>
<!-- Node2&#45;&gt;Node10 -->
<g id="edge9_Node000002_Node000010" class="edge">
<title>Node2&#45;&gt;Node10</title>
<g id="a_edge9_Node000002_Node000010"><a xlink:title=" ">
<path fill="none" stroke="#63b8ff" d="M382.01,-135.47C443.11,-121.71 502.62,-108.6 546.36,-99.02"/>
<polygon fill="#63b8ff" stroke="#63b8ff" points="381.45,-132.01 372.46,-137.63 382.99,-138.84 381.45,-132.01"/>
</a>
</g>
</g>
<!-- Node4 -->
<g id="Node000004" class="node">
<title>Node4</title>
<g id="a_Node000004"><a xlink:href="driver__as608__advance_8c.html" target="_top" xlink:title="driver as608 advance source file">
<polygon fill="white" stroke="#666666" points="111.25,-32 0,-32 0,0 111.25,0 111.25,-32"/>
<text xml:space="preserve" text-anchor="start" x="8" y="-18.5" font-family="Helvetica,sans-Serif" font-size="10.00">example/driver_as608</text>
<text xml:space="preserve" text-anchor="middle" x="55.62" y="-6.5" font-family="Helvetica,sans-Serif" font-size="10.00">_advance.c</text>
</a>
</g>
</g>
<!-- Node3&#45;&gt;Node4 -->
<g id="edge3_Node000003_Node000004" class="edge">
<title>Node3&#45;&gt;Node4</title>
<g id="a_edge3_Node000003_Node000004"><a xlink:title=" ">
<path fill="none" stroke="#63b8ff" d="M55.62,-56.31C55.62,-48.12 55.62,-39.38 55.62,-32.22"/>
<polygon fill="#63b8ff" stroke="#63b8ff" points="52.13,-56.18 55.63,-66.18 59.13,-56.18 52.13,-56.18"/>
</a>
</g>
</g>
<!-- Node6 -->
<g id="Node000006" class="node">
<title>Node6</title>
<g id="a_Node000006"><a xlink:href="driver__as608__basic_8c.html" target="_top" xlink:title="driver as608 basic source file">
<polygon fill="white" stroke="#666666" points="240.25,-32 129,-32 129,0 240.25,0 240.25,-32"/>
<text xml:space="preserve" text-anchor="start" x="137" y="-18.5" font-family="Helvetica,sans-Serif" font-size="10.00">example/driver_as608</text>
<text xml:space="preserve" text-anchor="middle" x="184.62" y="-6.5" font-family="Helvetica,sans-Serif" font-size="10.00">_basic.c</text>
</a>
</g>
</g>
<!-- Node5&#45;&gt;Node6 -->
<g id="edge5_Node000005_Node000006" class="edge">
<title>Node5&#45;&gt;Node6</title>
<g id="a_edge5_Node000005_Node000006"><a xlink:title=" ">
<path fill="none" stroke="#63b8ff" d="M184.62,-56.31C184.62,-48.12 184.62,-39.38 184.62,-32.22"/>
<polygon fill="#63b8ff" stroke="#63b8ff" points="181.13,-56.18 184.63,-66.18 188.13,-56.18 181.13,-56.18"/>
</a>
</g>
</g>
<!-- Node9 -->
<g id="Node000009" class="node">
<title>Node9</title>
<g id="a_Node000009"><a xlink:href="driver__as608__fingerprint__test_8c.html" target="_top" xlink:title="driver as608 fingerprint test source file">
<polygon fill="white" stroke="#666666" points="528.12,-32 389.12,-32 389.12,0 528.12,0 528.12,-32"/>
<text xml:space="preserve" text-anchor="start" x="397.12" y="-18.5" font-family="Helvetica,sans-Serif" font-size="10.00">test/driver_as608_fingerprint</text>
<text xml:space="preserve" text-anchor="middle" x="458.62" y="-6.5" font-family="Helvetica,sans-Serif" font-size="10.00">_test.c</text>
</a>
</g>
</g>
<!-- Node8&#45;&gt;Node9 -->
<g id="edge8_Node000008_Node000009" class="edge">
<title>Node8&#45;&gt;Node9</title>
<g id="a_edge8_Node000008_Node000009"><a xlink:title=" ">
<path fill="none" stroke="#63b8ff" d="M458.62,-56.31C458.62,-48.12 458.62,-39.38 458.62,-32.22"/>
<polygon fill="#63b8ff" stroke="#63b8ff" points="455.13,-56.18 458.63,-66.18 462.13,-56.18 455.13,-56.18"/>
</a>
</g>
</g>
<!-- Node11 -->
<g id="Node000011" class="node">
<title>Node11</title>
<g id="a_Node000011"><a xlink:href="driver__as608__register__test_8c.html" target="_top" xlink:title="driver as608 register test source file">
<polygon fill="white" stroke="#666666" points="674.88,-32 546.38,-32 546.38,0 674.88,0 674.88,-32"/>
<text xml:space="preserve" text-anchor="start" x="554.38" y="-18.5" font-family="Helvetica,sans-Serif" font-size="10.00">test/driver_as608_register</text>
<text xml:space="preserve" text-anchor="middle" x="610.62" y="-6.5" font-family="Helvetica,sans-Serif" font-size="10.00">_test.c</text>
</a>
</g>
</g>
<!-- Node10&#45;&gt;Node11 -->
<g id="edge10_Node000010_Node000011" class="edge">
<title>Node10&#45;&gt;Node11</title>
<g id="a_edge10_Node000010_Node000011"><a xlink:title=" ">
<path fill="none" stroke="#63b8ff" d="M610.62,-56.31C610.62,-48.12 610.62,-39.38 610.62,-32.22"/>
<polygon fill="#63b8ff" stroke="#63b8ff" points="607.13,-56.18 610.63,-66.18 614.13,-56.18 607.13,-56.18"/>
</a>
</g>
</g>
</g>
</svg>
