<?xml version="1.0" encoding="UTF-8" standalone="no"?>
<!DOCTYPE svg PUBLIC "-//W3C//DTD SVG 1.1//EN"
 "http://www.w3.org/Graphics/SVG/1.1/DTD/svg11.dtd">
<!-- Generated by graphviz version 13.1.0 (20250701.0955)
 -->
<!-- Title: as608 driver function Pages: 1 -->
<svg width="277pt" height="266pt"
 viewBox="0.00 0.00 277.00 266.00" xmlns="http://www.w3.org/2000/svg" xmlns:xlink="http://www.w3.org/1999/xlink">
<g id="graph0" class="graph" transform="scale(1 1) rotate(0) translate(4 262)">
<title>as608 driver function</title>
<!-- Node3 -->
<g id="Node000003" class="node">
<title>Node3</title>
<g id="a_Node000003"><a xlink:href="group__as608__basic__driver.html" target="_top" xlink:title="as608 basic driver modules">
<polygon fill="white" stroke="#666666" points="253.62,-258 158.12,-258 158.12,-226 253.62,-226 253.62,-258"/>
<text xml:space="preserve" text-anchor="start" x="166.12" y="-244.5" font-family="Helvetica,sans-Serif" font-size="10.00">as608 basic driver</text>
<text xml:space="preserve" text-anchor="middle" x="205.88" y="-232.5" font-family="Helvetica,sans-Serif" font-size="10.00"> function</text>
</a>
</g>
</g>
<!-- Node1 -->
<g id="Node000001" class="node">
<title>Node1</title>
<g id="a_Node000001"><a xlink:title="as608 driver modules">
<polygon fill="#999999" stroke="#666666" points="106.75,-127 0,-127 0,-107 106.75,-107 106.75,-127"/>
<text xml:space="preserve" text-anchor="middle" x="53.38" y="-113.5" font-family="Helvetica,sans-Serif" font-size="10.00">as608 driver function</text>
</a>
</g>
</g>
<!-- Node1&#45;&gt;Node3 -->
<g id="edge2" class="edge">
<title>Node1&#45;&gt;Node3</title>
<path fill="none" stroke="black" d="M67.4,-136.57C83.01,-158.72 111.05,-194.62 142.75,-217 147.4,-220.29 152.55,-223.23 157.83,-225.84"/>
<polygon fill="black" stroke="black" points="70.36,-134.7 61.81,-128.44 64.59,-138.67 70.36,-134.7"/>
</g>
<!-- Node6 -->
<g id="Node000006" class="node">
<title>Node6</title>
<g id="a_Node000006"><a xlink:href="group__as608__example__driver.html" target="_top" xlink:title="as608 example driver modules">
<polygon fill="white" stroke="#666666" points="260.38,-208 151.38,-208 151.38,-176 260.38,-176 260.38,-208"/>
<text xml:space="preserve" text-anchor="start" x="159.38" y="-194.5" font-family="Helvetica,sans-Serif" font-size="10.00">as608 example driver</text>
<text xml:space="preserve" text-anchor="middle" x="205.88" y="-182.5" font-family="Helvetica,sans-Serif" font-size="10.00"> function</text>
</a>
</g>
</g>
<!-- Node1&#45;&gt;Node6 -->
<g id="edge5" class="edge">
<title>Node1&#45;&gt;Node6</title>
<path fill="none" stroke="black" d="M80.73,-133.13C98.05,-143.42 121.37,-156.71 142.75,-167 148.83,-169.93 155.34,-172.81 161.78,-175.52"/>
<polygon fill="black" stroke="black" points="82.96,-130.38 72.59,-128.24 79.36,-136.39 82.96,-130.38"/>
</g>
<!-- Node4 -->
<g id="Node000004" class="node">
<title>Node4</title>
<g id="a_Node000004"><a xlink:href="group__as608__extern__driver.html" target="_top" xlink:title="as608 extern driver modules">
<polygon fill="white" stroke="#666666" points="255.5,-158 156.25,-158 156.25,-126 255.5,-126 255.5,-158"/>
<text xml:space="preserve" text-anchor="start" x="164.25" y="-144.5" font-family="Helvetica,sans-Serif" font-size="10.00">as608 extern driver</text>
<text xml:space="preserve" text-anchor="middle" x="205.88" y="-132.5" font-family="Helvetica,sans-Serif" font-size="10.00"> function</text>
</a>
</g>
</g>
<!-- Node1&#45;&gt;Node4 -->
<g id="edge3" class="edge">
<title>Node1&#45;&gt;Node4</title>
<path fill="none" stroke="black" d="M118.36,-127.63C130.89,-129.71 143.85,-131.86 155.8,-133.85"/>
<polygon fill="black" stroke="black" points="118.94,-124.18 108.51,-125.99 117.8,-131.08 118.94,-124.18"/>
</g>
<!-- Node5 -->
<g id="Node000005" class="node">
<title>Node5</title>
<g id="a_Node000005"><a xlink:href="group__as608__interface__driver.html" target="_top" xlink:title="as608 interface driver modules">
<polygon fill="white" stroke="#666666" points="260.75,-108 151,-108 151,-76 260.75,-76 260.75,-108"/>
<text xml:space="preserve" text-anchor="start" x="159" y="-94.5" font-family="Helvetica,sans-Serif" font-size="10.00">as608 interface driver</text>
<text xml:space="preserve" text-anchor="middle" x="205.88" y="-82.5" font-family="Helvetica,sans-Serif" font-size="10.00"> function</text>
</a>
</g>
</g>
<!-- Node1&#45;&gt;Node5 -->
<g id="edge4" class="edge">
<title>Node1&#45;&gt;Node5</title>
<path fill="none" stroke="black" d="M118.16,-106.4C129,-104.6 140.17,-102.75 150.74,-100.99"/>
<polygon fill="black" stroke="black" points="117.8,-102.92 108.51,-108.01 118.94,-109.82 117.8,-102.92"/>
</g>
<!-- Node2 -->
<g id="Node000002" class="node">
<title>Node2</title>
<g id="a_Node000002"><a xlink:href="group__as608__link__driver.html" target="_top" xlink:title="as608 link driver modules">
<polygon fill="white" stroke="#666666" points="268.25,-58 143.5,-58 143.5,-38 268.25,-38 268.25,-58"/>
<text xml:space="preserve" text-anchor="middle" x="205.88" y="-44.5" font-family="Helvetica,sans-Serif" font-size="10.00">as608 link driver function</text>
</a>
</g>
</g>
<!-- Node1&#45;&gt;Node2 -->
<g id="edge1" class="edge">
<title>Node1&#45;&gt;Node2</title>
<path fill="none" stroke="black" d="M79.49,-100.83C96.78,-90.2 120.55,-76.54 142.75,-67 150.11,-63.84 158.16,-60.97 165.96,-58.47"/>
<polygon fill="black" stroke="black" points="78.03,-97.62 71.4,-105.89 81.74,-103.56 78.03,-97.62"/>
</g>
<!-- Node7 -->
<g id="Node000007" class="node">
<title>Node7</title>
<g id="a_Node000007"><a xlink:href="group__as608__test__driver.html" target="_top" xlink:title="as608 test driver modules">
<polygon fill="white" stroke="#666666" points="269,-20 142.75,-20 142.75,0 269,0 269,-20"/>
<text xml:space="preserve" text-anchor="middle" x="205.88" y="-6.5" font-family="Helvetica,sans-Serif" font-size="10.00">as608 test driver function</text>
</a>
</g>
</g>
<!-- Node1&#45;&gt;Node7 -->
<g id="edge6" class="edge">
<title>Node1&#45;&gt;Node7</title>
<path fill="none" stroke="black" d="M68.82,-97.88C84.83,-77.97 112.43,-47.18 142.75,-29 148.36,-25.64 154.62,-22.82 160.94,-20.48"/>
<polygon fill="black" stroke="black" points="66.27,-95.46 62.87,-105.49 71.79,-99.78 66.27,-95.46"/>
</g>
</g>
</svg>
