<?xml version="1.0" encoding="UTF-8" standalone="no"?>
<!DOCTYPE svg PUBLIC "-//W3C//DTD SVG 1.1//EN"
 "http://www.w3.org/Graphics/SVG/1.1/DTD/svg11.dtd">
<!-- Generated by graphviz version 13.1.0 (20250701.0955)
 -->
<!-- Title: as608_advance_high_speed_verify Pages: 1 -->
<svg width="283pt" height="104pt"
 viewBox="0.00 0.00 283.00 104.00" xmlns="http://www.w3.org/2000/svg" xmlns:xlink="http://www.w3.org/1999/xlink">
<g id="graph0" class="graph" transform="scale(1 1) rotate(0) translate(4 100)">
<title>as608_advance_high_speed_verify</title>
<!-- Node1 -->
<g id="Node000001" class="node">
<title>Node1</title>
<g id="a_Node000001"><a xlink:title="advance example high speed verify">
<polygon fill="#999999" stroke="#666666" points="107.5,-64 0,-64 0,-32 107.5,-32 107.5,-64"/>
<text xml:space="preserve" text-anchor="start" x="8" y="-50.5" font-family="Helvetica,sans-Serif" font-size="10.00">as608_advance_high</text>
<text xml:space="preserve" text-anchor="middle" x="53.75" y="-38.5" font-family="Helvetica,sans-Serif" font-size="10.00">_speed_verify</text>
</a>
</g>
</g>
<!-- Node2 -->
<g id="Node000002" class="node">
<title>Node2</title>
<g id="a_Node000002"><a xlink:href="group__as608__basic__driver.html#ga2608b9731847803e65e66e312490838d" target="_top" xlink:title="generate feature">
<polygon fill="white" stroke="#666666" points="269.38,-96 149.12,-96 149.12,-76 269.38,-76 269.38,-96"/>
<text xml:space="preserve" text-anchor="middle" x="209.25" y="-82.5" font-family="Helvetica,sans-Serif" font-size="10.00">as608_generate_feature</text>
</a>
</g>
</g>
<!-- Node1&#45;&gt;Node2 -->
<g id="edge1_Node000001_Node000002" class="edge">
<title>Node1&#45;&gt;Node2</title>
<g id="a_edge1_Node000001_Node000002"><a xlink:title=" ">
<path fill="none" stroke="#63b8ff" d="M107.58,-61.08C122.93,-64.88 139.7,-69.03 155.07,-72.84"/>
<polygon fill="#63b8ff" stroke="#63b8ff" points="153.96,-76.17 164.51,-75.17 155.65,-69.37 153.96,-76.17"/>
</a>
</g>
</g>
<!-- Node3 -->
<g id="Node000003" class="node">
<title>Node3</title>
<g id="a_Node000003"><a xlink:href="group__as608__basic__driver.html#ga63e41a6ac72f9a5940950c829d54ef88" target="_top" xlink:title="get image">
<polygon fill="white" stroke="#666666" points="255.5,-58 163,-58 163,-38 255.5,-38 255.5,-58"/>
<text xml:space="preserve" text-anchor="middle" x="209.25" y="-44.5" font-family="Helvetica,sans-Serif" font-size="10.00">as608_get_image</text>
</a>
</g>
</g>
<!-- Node1&#45;&gt;Node3 -->
<g id="edge2_Node000001_Node000003" class="edge">
<title>Node1&#45;&gt;Node3</title>
<g id="a_edge2_Node000001_Node000003"><a xlink:title=" ">
<path fill="none" stroke="#63b8ff" d="M107.58,-48C121.74,-48 137.11,-48 151.48,-48"/>
<polygon fill="#63b8ff" stroke="#63b8ff" points="151.23,-51.5 161.23,-48 151.23,-44.5 151.23,-51.5"/>
</a>
</g>
</g>
<!-- Node4 -->
<g id="Node000004" class="node">
<title>Node4</title>
<g id="a_Node000004"><a xlink:href="group__as608__basic__driver.html#gafb9a7c8ab29c9f97237a19bf0caa5c62" target="_top" xlink:title="high speed search">
<polygon fill="white" stroke="#666666" points="275,-20 143.5,-20 143.5,0 275,0 275,-20"/>
<text xml:space="preserve" text-anchor="middle" x="209.25" y="-6.5" font-family="Helvetica,sans-Serif" font-size="10.00">as608_high_speed_search</text>
</a>
</g>
</g>
<!-- Node1&#45;&gt;Node4 -->
<g id="edge3_Node000001_Node000004" class="edge">
<title>Node1&#45;&gt;Node4</title>
<g id="a_edge3_Node000001_Node000004"><a xlink:title=" ">
<path fill="none" stroke="#63b8ff" d="M107.58,-34.92C122.93,-31.12 139.7,-26.97 155.07,-23.16"/>
<polygon fill="#63b8ff" stroke="#63b8ff" points="155.65,-26.63 164.51,-20.83 153.96,-19.83 155.65,-26.63"/>
</a>
</g>
</g>
</g>
</svg>
