<?xml version="1.0" encoding="UTF-8" standalone="no"?>
<!DOCTYPE svg PUBLIC "-//W3C//DTD SVG 1.1//EN"
 "http://www.w3.org/Graphics/SVG/1.1/DTD/svg11.dtd">
<!-- Generated by graphviz version 13.1.0 (20250701.0955)
 -->
<!-- Title: as608_advance_upload_image_feature Pages: 1 -->
<svg width="282pt" height="104pt"
 viewBox="0.00 0.00 282.00 104.00" xmlns="http://www.w3.org/2000/svg" xmlns:xlink="http://www.w3.org/1999/xlink">
<g id="graph0" class="graph" transform="scale(1 1) rotate(0) translate(4 100)">
<title>as608_advance_upload_image_feature</title>
<!-- Node1 -->
<g id="Node000001" class="node">
<title>Node1</title>
<g id="a_Node000001"><a xlink:title="advance example upload image feature">
<polygon fill="#999999" stroke="#666666" points="118,-64 0,-64 0,-32 118,-32 118,-64"/>
<text xml:space="preserve" text-anchor="start" x="8" y="-50.5" font-family="Helvetica,sans-Serif" font-size="10.00">as608_advance_upload</text>
<text xml:space="preserve" text-anchor="middle" x="59" y="-38.5" font-family="Helvetica,sans-Serif" font-size="10.00">_image_feature</text>
</a>
</g>
</g>
<!-- Node2 -->
<g id="Node000002" class="node">
<title>Node2</title>
<g id="a_Node000002"><a xlink:href="group__as608__basic__driver.html#ga2608b9731847803e65e66e312490838d" target="_top" xlink:title="generate feature">
<polygon fill="white" stroke="#666666" points="274.25,-96 154,-96 154,-76 274.25,-76 274.25,-96"/>
<text xml:space="preserve" text-anchor="middle" x="214.12" y="-82.5" font-family="Helvetica,sans-Serif" font-size="10.00">as608_generate_feature</text>
</a>
</g>
</g>
<!-- Node1&#45;&gt;Node2 -->
<g id="edge1_Node000001_Node000002" class="edge">
<title>Node1&#45;&gt;Node2</title>
<g id="a_edge1_Node000001_Node000002"><a xlink:title=" ">
<path fill="none" stroke="#63b8ff" d="M118.33,-62.47C132.06,-65.88 146.63,-69.5 160.11,-72.84"/>
<polygon fill="#63b8ff" stroke="#63b8ff" points="159.13,-76.21 169.67,-75.22 160.81,-69.41 159.13,-76.21"/>
</a>
</g>
</g>
<!-- Node3 -->
<g id="Node000003" class="node">
<title>Node3</title>
<g id="a_Node000003"><a xlink:href="group__as608__basic__driver.html#ga63e41a6ac72f9a5940950c829d54ef88" target="_top" xlink:title="get image">
<polygon fill="white" stroke="#666666" points="260.38,-58 167.88,-58 167.88,-38 260.38,-38 260.38,-58"/>
<text xml:space="preserve" text-anchor="middle" x="214.12" y="-44.5" font-family="Helvetica,sans-Serif" font-size="10.00">as608_get_image</text>
</a>
</g>
</g>
<!-- Node1&#45;&gt;Node3 -->
<g id="edge2_Node000001_Node000003" class="edge">
<title>Node1&#45;&gt;Node3</title>
<g id="a_edge2_Node000001_Node000003"><a xlink:title=" ">
<path fill="none" stroke="#63b8ff" d="M118.33,-48C130.88,-48 144.13,-48 156.61,-48"/>
<polygon fill="#63b8ff" stroke="#63b8ff" points="156.3,-51.5 166.3,-48 156.3,-44.5 156.3,-51.5"/>
</a>
</g>
</g>
<!-- Node4 -->
<g id="Node000004" class="node">
<title>Node4</title>
<g id="a_Node000004"><a xlink:href="group__as608__basic__driver.html#ga9d0d49a0ecb5eab660c98a90a298cd97" target="_top" xlink:title="upload feature">
<polygon fill="white" stroke="#666666" points="269.75,-20 158.5,-20 158.5,0 269.75,0 269.75,-20"/>
<text xml:space="preserve" text-anchor="middle" x="214.12" y="-6.5" font-family="Helvetica,sans-Serif" font-size="10.00">as608_upload_feature</text>
</a>
</g>
</g>
<!-- Node1&#45;&gt;Node4 -->
<g id="edge3_Node000001_Node000004" class="edge">
<title>Node1&#45;&gt;Node4</title>
<g id="a_edge3_Node000001_Node000004"><a xlink:title=" ">
<path fill="none" stroke="#63b8ff" d="M118.33,-33.53C132.06,-30.12 146.63,-26.5 160.11,-23.16"/>
<polygon fill="#63b8ff" stroke="#63b8ff" points="160.81,-26.59 169.67,-20.78 159.13,-19.79 160.81,-26.59"/>
</a>
</g>
</g>
</g>
</svg>
