<?xml version="1.0" encoding="UTF-8" standalone="no"?>
<!DOCTYPE svg PUBLIC "-//W3C//DTD SVG 1.1//EN"
 "http://www.w3.org/Graphics/SVG/1.1/DTD/svg11.dtd">
<!-- Generated by graphviz version 13.1.0 (20250701.0955)
 -->
<!-- Title: as608_advance_download_flash_feature Pages: 1 -->
<svg width="299pt" height="66pt"
 viewBox="0.00 0.00 299.00 66.00" xmlns="http://www.w3.org/2000/svg" xmlns:xlink="http://www.w3.org/1999/xlink">
<g id="graph0" class="graph" transform="scale(1 1) rotate(0) translate(4 62)">
<title>as608_advance_download_flash_feature</title>
<!-- Node1 -->
<g id="Node000001" class="node">
<title>Node1</title>
<g id="a_Node000001"><a xlink:title="advance example download flash feature">
<polygon fill="#999999" stroke="#666666" points="130.75,-45 0,-45 0,-13 130.75,-13 130.75,-45"/>
<text xml:space="preserve" text-anchor="start" x="8" y="-31.5" font-family="Helvetica,sans-Serif" font-size="10.00">as608_advance_download</text>
<text xml:space="preserve" text-anchor="middle" x="65.38" y="-19.5" font-family="Helvetica,sans-Serif" font-size="10.00">_flash_feature</text>
</a>
</g>
</g>
<!-- Node2 -->
<g id="Node000002" class="node">
<title>Node2</title>
<g id="a_Node000002"><a xlink:href="group__as608__basic__driver.html#ga70d7c65eeed77678289aa0c706f1ec9c" target="_top" xlink:title="download feature">
<polygon fill="white" stroke="#666666" points="290.75,-58 166.75,-58 166.75,-38 290.75,-38 290.75,-58"/>
<text xml:space="preserve" text-anchor="middle" x="228.75" y="-44.5" font-family="Helvetica,sans-Serif" font-size="10.00">as608_download_feature</text>
</a>
</g>
</g>
<!-- Node1&#45;&gt;Node2 -->
<g id="edge1_Node000001_Node000002" class="edge">
<title>Node1&#45;&gt;Node2</title>
<g id="a_edge1_Node000001_Node000002"><a xlink:title=" ">
<path fill="none" stroke="#63b8ff" d="M131.08,-36.62C139.01,-37.55 147.15,-38.51 155.18,-39.46"/>
<polygon fill="#63b8ff" stroke="#63b8ff" points="154.59,-42.91 164.93,-40.6 155.41,-35.96 154.59,-42.91"/>
</a>
</g>
</g>
<!-- Node3 -->
<g id="Node000003" class="node">
<title>Node3</title>
<g id="a_Node000003"><a xlink:href="group__as608__basic__driver.html#ga26defaf8f19fe2838a12b81fc087cc40" target="_top" xlink:title="store feature">
<polygon fill="white" stroke="#666666" points="281,-20 176.5,-20 176.5,0 281,0 281,-20"/>
<text xml:space="preserve" text-anchor="middle" x="228.75" y="-6.5" font-family="Helvetica,sans-Serif" font-size="10.00">as608_store_feature</text>
</a>
</g>
</g>
<!-- Node1&#45;&gt;Node3 -->
<g id="edge2_Node000001_Node000003" class="edge">
<title>Node1&#45;&gt;Node3</title>
<g id="a_edge2_Node000001_Node000003"><a xlink:title=" ">
<path fill="none" stroke="#63b8ff" d="M131.08,-21.38C142.21,-20.07 153.76,-18.71 164.84,-17.41"/>
<polygon fill="#63b8ff" stroke="#63b8ff" points="165.16,-20.89 174.68,-16.25 164.34,-13.94 165.16,-20.89"/>
</a>
</g>
</g>
</g>
</svg>
