<?xml version="1.0" encoding="UTF-8" standalone="no"?>
<!DOCTYPE svg PUBLIC "-//W3C//DTD SVG 1.1//EN"
 "http://www.w3.org/Graphics/SVG/1.1/DTD/svg11.dtd">
<!-- Generated by graphviz version 13.1.0 (20250701.0955)
 -->
<!-- Title: as608_basic_high_speed_verify Pages: 1 -->
<svg width="301pt" height="104pt"
 viewBox="0.00 0.00 301.00 104.00" xmlns="http://www.w3.org/2000/svg" xmlns:xlink="http://www.w3.org/1999/xlink">
<g id="graph0" class="graph" transform="scale(1 1) rotate(0) translate(4 100)">
<title>as608_basic_high_speed_verify</title>
<!-- Node1 -->
<g id="Node000001" class="node">
<title>Node1</title>
<g id="a_Node000001"><a xlink:title="basic example high speed verify">
<polygon fill="#999999" stroke="#666666" points="125.5,-64 0,-64 0,-32 125.5,-32 125.5,-64"/>
<text xml:space="preserve" text-anchor="start" x="8" y="-50.5" font-family="Helvetica,sans-Serif" font-size="10.00">as608_basic_high_speed</text>
<text xml:space="preserve" text-anchor="middle" x="62.75" y="-38.5" font-family="Helvetica,sans-Serif" font-size="10.00">_verify</text>
</a>
</g>
</g>
<!-- Node2 -->
<g id="Node000002" class="node">
<title>Node2</title>
<g id="a_Node000002"><a xlink:href="group__as608__basic__driver.html#ga2608b9731847803e65e66e312490838d" target="_top" xlink:title="generate feature">
<polygon fill="white" stroke="#666666" points="287.38,-96 167.12,-96 167.12,-76 287.38,-76 287.38,-96"/>
<text xml:space="preserve" text-anchor="middle" x="227.25" y="-82.5" font-family="Helvetica,sans-Serif" font-size="10.00">as608_generate_feature</text>
</a>
</g>
</g>
<!-- Node1&#45;&gt;Node2 -->
<g id="edge1_Node000001_Node000002" class="edge">
<title>Node1&#45;&gt;Node2</title>
<g id="a_edge1_Node000001_Node000002"><a xlink:title=" ">
<path fill="none" stroke="#63b8ff" d="M125.65,-62.47C140.44,-65.93 156.15,-69.61 170.64,-73"/>
<polygon fill="#63b8ff" stroke="#63b8ff" points="169.44,-76.31 179.98,-75.18 171.03,-69.49 169.44,-76.31"/>
</a>
</g>
</g>
<!-- Node3 -->
<g id="Node000003" class="node">
<title>Node3</title>
<g id="a_Node000003"><a xlink:href="group__as608__basic__driver.html#ga63e41a6ac72f9a5940950c829d54ef88" target="_top" xlink:title="get image">
<polygon fill="white" stroke="#666666" points="273.5,-58 181,-58 181,-38 273.5,-38 273.5,-58"/>
<text xml:space="preserve" text-anchor="middle" x="227.25" y="-44.5" font-family="Helvetica,sans-Serif" font-size="10.00">as608_get_image</text>
</a>
</g>
</g>
<!-- Node1&#45;&gt;Node3 -->
<g id="edge2_Node000001_Node000003" class="edge">
<title>Node1&#45;&gt;Node3</title>
<g id="a_edge2_Node000001_Node000003"><a xlink:title=" ">
<path fill="none" stroke="#63b8ff" d="M125.65,-48C140.09,-48 155.39,-48 169.59,-48"/>
<polygon fill="#63b8ff" stroke="#63b8ff" points="169.18,-51.5 179.18,-48 169.18,-44.5 169.18,-51.5"/>
</a>
</g>
</g>
<!-- Node4 -->
<g id="Node000004" class="node">
<title>Node4</title>
<g id="a_Node000004"><a xlink:href="group__as608__basic__driver.html#gafb9a7c8ab29c9f97237a19bf0caa5c62" target="_top" xlink:title="high speed search">
<polygon fill="white" stroke="#666666" points="293,-20 161.5,-20 161.5,0 293,0 293,-20"/>
<text xml:space="preserve" text-anchor="middle" x="227.25" y="-6.5" font-family="Helvetica,sans-Serif" font-size="10.00">as608_high_speed_search</text>
</a>
</g>
</g>
<!-- Node1&#45;&gt;Node4 -->
<g id="edge3_Node000001_Node000004" class="edge">
<title>Node1&#45;&gt;Node4</title>
<g id="a_edge3_Node000001_Node000004"><a xlink:title=" ">
<path fill="none" stroke="#63b8ff" d="M125.65,-33.53C140.44,-30.07 156.15,-26.39 170.64,-23"/>
<polygon fill="#63b8ff" stroke="#63b8ff" points="171.03,-26.51 179.98,-20.82 169.44,-19.69 171.03,-26.51"/>
</a>
</g>
</g>
</g>
</svg>
