<?xml version="1.0" encoding="UTF-8" standalone="no"?>
<!DOCTYPE svg PUBLIC "-//W3C//DTD SVG 1.1//EN"
 "http://www.w3.org/Graphics/SVG/1.1/DTD/svg11.dtd">
<!-- Generated by graphviz version 13.1.0 (20250701.0955)
 -->
<!-- Title: as608_advance_upload_flash_feature Pages: 1 -->
<svg width="273pt" height="66pt"
 viewBox="0.00 0.00 273.00 66.00" xmlns="http://www.w3.org/2000/svg" xmlns:xlink="http://www.w3.org/1999/xlink">
<g id="graph0" class="graph" transform="scale(1 1) rotate(0) translate(4 62)">
<title>as608_advance_upload_flash_feature</title>
<!-- Node1 -->
<g id="Node000001" class="node">
<title>Node1</title>
<g id="a_Node000001"><a xlink:title="advance example upload flash feature">
<polygon fill="#999999" stroke="#666666" points="118,-45 0,-45 0,-13 118,-13 118,-45"/>
<text xml:space="preserve" text-anchor="start" x="8" y="-31.5" font-family="Helvetica,sans-Serif" font-size="10.00">as608_advance_upload</text>
<text xml:space="preserve" text-anchor="middle" x="59" y="-19.5" font-family="Helvetica,sans-Serif" font-size="10.00">_flash_feature</text>
</a>
</g>
</g>
<!-- Node2 -->
<g id="Node000002" class="node">
<title>Node2</title>
<g id="a_Node000002"><a xlink:href="group__as608__basic__driver.html#ga1700814a5577d0ae918c010ee33bb131" target="_top" xlink:title="load feature">
<polygon fill="white" stroke="#666666" points="260,-58 159.25,-58 159.25,-38 260,-38 260,-58"/>
<text xml:space="preserve" text-anchor="middle" x="209.62" y="-44.5" font-family="Helvetica,sans-Serif" font-size="10.00">as608_load_feature</text>
</a>
</g>
</g>
<!-- Node1&#45;&gt;Node2 -->
<g id="edge1_Node000001_Node000002" class="edge">
<title>Node1&#45;&gt;Node2</title>
<g id="a_edge1_Node000001_Node000002"><a xlink:title=" ">
<path fill="none" stroke="#63b8ff" d="M118.31,-36.45C128.02,-37.7 138.1,-38.98 147.86,-40.23"/>
<polygon fill="#63b8ff" stroke="#63b8ff" points="147.27,-43.68 157.63,-41.48 148.16,-36.74 147.27,-43.68"/>
</a>
</g>
</g>
<!-- Node3 -->
<g id="Node000003" class="node">
<title>Node3</title>
<g id="a_Node000003"><a xlink:href="group__as608__basic__driver.html#ga9d0d49a0ecb5eab660c98a90a298cd97" target="_top" xlink:title="upload feature">
<polygon fill="white" stroke="#666666" points="265.25,-20 154,-20 154,0 265.25,0 265.25,-20"/>
<text xml:space="preserve" text-anchor="middle" x="209.62" y="-6.5" font-family="Helvetica,sans-Serif" font-size="10.00">as608_upload_feature</text>
</a>
</g>
</g>
<!-- Node1&#45;&gt;Node3 -->
<g id="edge2_Node000001_Node000003" class="edge">
<title>Node1&#45;&gt;Node3</title>
<g id="a_edge2_Node000001_Node000003"><a xlink:title=" ">
<path fill="none" stroke="#63b8ff" d="M118.31,-21.55C126.27,-20.53 134.49,-19.48 142.57,-18.44"/>
<polygon fill="#63b8ff" stroke="#63b8ff" points="142.9,-21.93 152.37,-17.19 142.01,-14.99 142.9,-21.93"/>
</a>
</g>
</g>
</g>
</svg>
