<?xml version="1.0" encoding="UTF-8" standalone="no"?>
<!DOCTYPE svg PUBLIC "-//W3C//DTD SVG 1.1//EN"
 "http://www.w3.org/Graphics/SVG/1.1/DTD/svg11.dtd">
<!-- Generated by graphviz version 13.1.0 (20250701.0955)
 -->
<!-- Title: as608_basic_init Pages: 1 -->
<svg width="265pt" height="646pt"
 viewBox="0.00 0.00 265.00 646.00" xmlns="http://www.w3.org/2000/svg" xmlns:xlink="http://www.w3.org/1999/xlink">
<g id="graph0" class="graph" transform="scale(1 1) rotate(0) translate(4 642)">
<title>as608_basic_init</title>
<!-- Node1 -->
<g id="Node000001" class="node">
<title>Node1</title>
<g id="a_Node000001"><a xlink:title="basic example init">
<polygon fill="#999999" stroke="#666666" points="88.75,-314 0,-314 0,-294 88.75,-294 88.75,-314"/>
<text xml:space="preserve" text-anchor="middle" x="44.38" y="-300.5" font-family="Helvetica,sans-Serif" font-size="10.00">as608_basic_init</text>
</a>
</g>
</g>
<!-- Node2 -->
<g id="Node000002" class="node">
<title>Node2</title>
<g id="a_Node000002"><a xlink:href="group__as608__basic__driver.html#gaa90b573b594c88ca7927aad4af1f9ca6" target="_top" xlink:title="close the chip">
<polygon fill="white" stroke="#666666" points="226.25,-638 155.5,-638 155.5,-618 226.25,-618 226.25,-638"/>
<text xml:space="preserve" text-anchor="middle" x="190.88" y="-624.5" font-family="Helvetica,sans-Serif" font-size="10.00">as608_deinit</text>
</a>
</g>
</g>
<!-- Node1&#45;&gt;Node2 -->
<g id="edge1_Node000001_Node000002" class="edge">
<title>Node1&#45;&gt;Node2</title>
<g id="a_edge1_Node000001_Node000002"><a xlink:title=" ">
<path fill="none" stroke="#63b8ff" d="M46.7,-314.39C53.05,-362.7 81.87,-564.84 124.75,-609 130.15,-614.56 137.08,-618.52 144.4,-621.33"/>
<polygon fill="#63b8ff" stroke="#63b8ff" points="143.23,-624.63 153.82,-624.24 145.29,-617.95 143.23,-624.63"/>
</a>
</g>
</g>
<!-- Node3 -->
<g id="Node000003" class="node">
<title>Node3</title>
<g id="a_Node000003"><a xlink:href="group__as608__basic__driver.html#ga135126636cda72875fb0b4fae3fd099c" target="_top" xlink:title="initialize the chip">
<polygon fill="white" stroke="#666666" points="221,-600 160.75,-600 160.75,-580 221,-580 221,-600"/>
<text xml:space="preserve" text-anchor="middle" x="190.88" y="-586.5" font-family="Helvetica,sans-Serif" font-size="10.00">as608_init</text>
</a>
</g>
</g>
<!-- Node1&#45;&gt;Node3 -->
<g id="edge2_Node000001_Node000003" class="edge">
<title>Node1&#45;&gt;Node3</title>
<g id="a_edge2_Node000001_Node000003"><a xlink:title=" ">
<path fill="none" stroke="#63b8ff" d="M45.17,-314.44C44.96,-354.01 49.67,-496.3 124.75,-571 131.46,-577.67 140.37,-582.03 149.44,-584.87"/>
<polygon fill="#63b8ff" stroke="#63b8ff" points="148.43,-588.22 158.98,-587.26 150.13,-581.43 148.43,-588.22"/>
</a>
</g>
</g>
<!-- Node4 -->
<g id="Node000004" class="node">
<title>Node4</title>
<g id="a_Node000004"><a xlink:href="group__as608__interface__driver.html#ga824c6ce7820807580f5f130acf581540" target="_top" xlink:title="interface print format data">
<polygon fill="white" stroke="#666666" points="249.12,-562 132.62,-562 132.62,-530 249.12,-530 249.12,-562"/>
<text xml:space="preserve" text-anchor="start" x="140.62" y="-548.5" font-family="Helvetica,sans-Serif" font-size="10.00">as608_interface_debug</text>
<text xml:space="preserve" text-anchor="middle" x="190.88" y="-536.5" font-family="Helvetica,sans-Serif" font-size="10.00">_print</text>
</a>
</g>
</g>
<!-- Node1&#45;&gt;Node4 -->
<g id="edge3_Node000001_Node000004" class="edge">
<title>Node1&#45;&gt;Node4</title>
<g id="a_edge3_Node000001_Node000004"><a xlink:title=" ">
<path fill="none" stroke="#63b8ff" d="M46.18,-314.19C49.38,-348.25 64.25,-459.53 124.75,-521 125.36,-521.61 125.98,-522.22 126.61,-522.8"/>
<polygon fill="#63b8ff" stroke="#63b8ff" points="124.35,-525.48 134.44,-528.71 128.57,-519.89 124.35,-525.48"/>
</a>
</g>
</g>
<!-- Node5 -->
<g id="Node000005" class="node">
<title>Node5</title>
<g id="a_Node000005"><a xlink:href="group__as608__interface__driver.html#gab62705efcf1161318e011c632a3f315c" target="_top" xlink:title="interface delay ms">
<polygon fill="white" stroke="#666666" points="257,-512 124.75,-512 124.75,-492 257,-492 257,-512"/>
<text xml:space="preserve" text-anchor="middle" x="190.88" y="-498.5" font-family="Helvetica,sans-Serif" font-size="10.00">as608_interface_delay_ms</text>
</a>
</g>
</g>
<!-- Node1&#45;&gt;Node5 -->
<g id="edge4_Node000001_Node000005" class="edge">
<title>Node1&#45;&gt;Node5</title>
<g id="a_edge4_Node000001_Node000005"><a xlink:title=" ">
<path fill="none" stroke="#63b8ff" d="M46.87,-314.27C51.85,-344.8 70.76,-435.78 124.75,-483 125.85,-483.96 126.99,-484.87 128.17,-485.74"/>
<polygon fill="#63b8ff" stroke="#63b8ff" points="126.2,-488.64 136.58,-490.74 129.78,-482.62 126.2,-488.64"/>
</a>
</g>
</g>
<!-- Node6 -->
<g id="Node000006" class="node">
<title>Node6</title>
<g id="a_Node000006"><a xlink:href="group__as608__interface__driver.html#ga53ba498e5c1ed743430c342253e9e3cc" target="_top" xlink:title="interface uart deinit">
<polygon fill="white" stroke="#666666" points="244.25,-474 137.5,-474 137.5,-442 244.25,-442 244.25,-474"/>
<text xml:space="preserve" text-anchor="start" x="145.5" y="-460.5" font-family="Helvetica,sans-Serif" font-size="10.00">as608_interface_uart</text>
<text xml:space="preserve" text-anchor="middle" x="190.88" y="-448.5" font-family="Helvetica,sans-Serif" font-size="10.00">_deinit</text>
</a>
</g>
</g>
<!-- Node1&#45;&gt;Node6 -->
<g id="edge5_Node000001_Node000006" class="edge">
<title>Node1&#45;&gt;Node6</title>
<g id="a_edge5_Node000001_Node000006"><a xlink:title=" ">
<path fill="none" stroke="#63b8ff" d="M49.02,-314.27C58.09,-338.37 83.88,-399.07 124.75,-433 125.85,-433.91 126.99,-434.8 128.16,-435.65"/>
<polygon fill="#63b8ff" stroke="#63b8ff" points="126.03,-438.44 136.36,-440.8 129.75,-432.52 126.03,-438.44"/>
</a>
</g>
</g>
<!-- Node7 -->
<g id="Node000007" class="node">
<title>Node7</title>
<g id="a_Node000007"><a xlink:href="group__as608__interface__driver.html#ga1666f8bf2083160ef8765d7f889f1681" target="_top" xlink:title="interface uart flush">
<polygon fill="white" stroke="#666666" points="244.25,-424 137.5,-424 137.5,-392 244.25,-392 244.25,-424"/>
<text xml:space="preserve" text-anchor="start" x="145.5" y="-410.5" font-family="Helvetica,sans-Serif" font-size="10.00">as608_interface_uart</text>
<text xml:space="preserve" text-anchor="middle" x="190.88" y="-398.5" font-family="Helvetica,sans-Serif" font-size="10.00">_flush</text>
</a>
</g>
</g>
<!-- Node1&#45;&gt;Node7 -->
<g id="edge6_Node000001_Node000007" class="edge">
<title>Node1&#45;&gt;Node7</title>
<g id="a_edge6_Node000001_Node000007"><a xlink:title=" ">
<path fill="none" stroke="#63b8ff" d="M53.34,-314.35C66.55,-330.9 94.56,-363.45 124.75,-383 126.58,-384.19 128.47,-385.33 130.41,-386.43"/>
<polygon fill="#63b8ff" stroke="#63b8ff" points="128.58,-389.42 139.08,-390.87 131.78,-383.19 128.58,-389.42"/>
</a>
</g>
</g>
<!-- Node8 -->
<g id="Node000008" class="node">
<title>Node8</title>
<g id="a_Node000008"><a xlink:href="group__as608__interface__driver.html#ga082db92e383a0b84dbd457a77c349742" target="_top" xlink:title="interface uart init">
<polygon fill="white" stroke="#666666" points="253.25,-374 128.5,-374 128.5,-354 253.25,-354 253.25,-374"/>
<text xml:space="preserve" text-anchor="middle" x="190.88" y="-360.5" font-family="Helvetica,sans-Serif" font-size="10.00">as608_interface_uart_init</text>
</a>
</g>
</g>
<!-- Node1&#45;&gt;Node8 -->
<g id="edge7_Node000001_Node000008" class="edge">
<title>Node1&#45;&gt;Node8</title>
<g id="a_edge7_Node000001_Node000008"><a xlink:title=" ">
<path fill="none" stroke="#63b8ff" d="M63.19,-314.47C78.98,-323.44 102.86,-336.25 124.75,-345 129.3,-346.82 134.1,-348.55 138.93,-350.17"/>
<polygon fill="#63b8ff" stroke="#63b8ff" points="137.48,-353.38 148.07,-353.08 139.6,-346.71 137.48,-353.38"/>
</a>
</g>
</g>
<!-- Node9 -->
<g id="Node000009" class="node">
<title>Node9</title>
<g id="a_Node000009"><a xlink:href="group__as608__interface__driver.html#ga7e28e5a1168028db3e03098750171791" target="_top" xlink:title="interface uart read">
<polygon fill="white" stroke="#666666" points="256.25,-336 125.5,-336 125.5,-316 256.25,-316 256.25,-336"/>
<text xml:space="preserve" text-anchor="middle" x="190.88" y="-322.5" font-family="Helvetica,sans-Serif" font-size="10.00">as608_interface_uart_read</text>
</a>
</g>
</g>
<!-- Node1&#45;&gt;Node9 -->
<g id="edge8_Node000001_Node000009" class="edge">
<title>Node1&#45;&gt;Node9</title>
<g id="a_edge8_Node000001_Node000009"><a xlink:title=" ">
<path fill="none" stroke="#63b8ff" d="M89.12,-310.66C97.03,-311.87 105.49,-313.15 114.01,-314.45"/>
<polygon fill="#63b8ff" stroke="#63b8ff" points="113.31,-317.88 123.72,-315.93 114.36,-310.96 113.31,-317.88"/>
</a>
</g>
</g>
<!-- Node10 -->
<g id="Node000010" class="node">
<title>Node10</title>
<g id="a_Node000010"><a xlink:href="group__as608__interface__driver.html#ga89af6772e49eb0713c7c6f5d3398c06f" target="_top" xlink:title="interface uart write">
<polygon fill="white" stroke="#666666" points="244.25,-298 137.5,-298 137.5,-266 244.25,-266 244.25,-298"/>
<text xml:space="preserve" text-anchor="start" x="145.5" y="-284.5" font-family="Helvetica,sans-Serif" font-size="10.00">as608_interface_uart</text>
<text xml:space="preserve" text-anchor="middle" x="190.88" y="-272.5" font-family="Helvetica,sans-Serif" font-size="10.00">_write</text>
</a>
</g>
</g>
<!-- Node1&#45;&gt;Node10 -->
<g id="edge9_Node000001_Node000010" class="edge">
<title>Node1&#45;&gt;Node10</title>
<g id="a_edge9_Node000001_Node000010"><a xlink:title=" ">
<path fill="none" stroke="#63b8ff" d="M89.12,-297.34C100.7,-295.58 113.43,-293.64 125.84,-291.75"/>
<polygon fill="#63b8ff" stroke="#63b8ff" points="126.25,-295.23 135.61,-290.26 125.2,-288.31 126.25,-295.23"/>
</a>
</g>
</g>
<!-- Node11 -->
<g id="Node000011" class="node">
<title>Node11</title>
<g id="a_Node000011"><a xlink:href="group__as608__basic__driver.html#ga9619783c1cae3de43ff2a341e0d3364c" target="_top" xlink:title="set baud rate">
<polygon fill="white" stroke="#666666" points="245.38,-248 136.38,-248 136.38,-228 245.38,-228 245.38,-248"/>
<text xml:space="preserve" text-anchor="middle" x="190.88" y="-234.5" font-family="Helvetica,sans-Serif" font-size="10.00">as608_set_baud_rate</text>
</a>
</g>
</g>
<!-- Node1&#45;&gt;Node11 -->
<g id="edge10_Node000001_Node000011" class="edge">
<title>Node1&#45;&gt;Node11</title>
<g id="a_edge10_Node000001_Node000011"><a xlink:title=" ">
<path fill="none" stroke="#63b8ff" d="M60.28,-293.63C75.8,-283.2 101.1,-267.26 124.75,-257 128.83,-255.23 133.12,-253.57 137.47,-252.03"/>
<polygon fill="#63b8ff" stroke="#63b8ff" points="138.5,-255.37 146.89,-248.9 136.3,-248.73 138.5,-255.37"/>
</a>
</g>
</g>
<!-- Node12 -->
<g id="Node000012" class="node">
<title>Node12</title>
<g id="a_Node000012"><a xlink:href="group__as608__basic__driver.html#gacd33ee707571f0a30e7b021855204261" target="_top" xlink:title="set the chip address">
<polygon fill="white" stroke="#666666" points="252.88,-210 128.88,-210 128.88,-190 252.88,-190 252.88,-210"/>
<text xml:space="preserve" text-anchor="middle" x="190.88" y="-196.5" font-family="Helvetica,sans-Serif" font-size="10.00">as608_set_chip_address</text>
</a>
</g>
</g>
<!-- Node1&#45;&gt;Node12 -->
<g id="edge11_Node000001_Node000012" class="edge">
<title>Node1&#45;&gt;Node12</title>
<g id="a_edge11_Node000001_Node000012"><a xlink:title=" ">
<path fill="none" stroke="#63b8ff" d="M52.16,-293.69C64.48,-275.8 92.25,-239 124.75,-219 127.16,-217.51 129.7,-216.14 132.31,-214.87"/>
<polygon fill="#63b8ff" stroke="#63b8ff" points="133.45,-218.19 141.29,-211.06 130.71,-211.75 133.45,-218.19"/>
</a>
</g>
</g>
<!-- Node13 -->
<g id="Node000013" class="node">
<title>Node13</title>
<g id="a_Node000013"><a xlink:href="group__as608__basic__driver.html#ga9378d6e2c6ad9c944994428adff4e684" target="_top" xlink:title="set level">
<polygon fill="white" stroke="#666666" points="234.12,-172 147.62,-172 147.62,-152 234.12,-152 234.12,-172"/>
<text xml:space="preserve" text-anchor="middle" x="190.88" y="-158.5" font-family="Helvetica,sans-Serif" font-size="10.00">as608_set_level</text>
</a>
</g>
</g>
<!-- Node1&#45;&gt;Node13 -->
<g id="edge12_Node000001_Node000013" class="edge">
<title>Node1&#45;&gt;Node13</title>
<g id="a_edge12_Node000001_Node000013"><a xlink:title=" ">
<path fill="none" stroke="#63b8ff" d="M49.12,-293.64C58.22,-269.95 83.8,-211.54 124.75,-181 128.36,-178.3 132.35,-175.99 136.53,-174"/>
<polygon fill="#63b8ff" stroke="#63b8ff" points="137.8,-177.27 145.76,-170.28 135.17,-170.77 137.8,-177.27"/>
</a>
</g>
</g>
<!-- Node14 -->
<g id="Node000014" class="node">
<title>Node14</title>
<g id="a_Node000014"><a xlink:href="group__as608__basic__driver.html#ga0f46ecfb141f987b80a1281b8622d81d" target="_top" xlink:title="set packet size">
<polygon fill="white" stroke="#666666" points="250.25,-134 131.5,-134 131.5,-114 250.25,-114 250.25,-134"/>
<text xml:space="preserve" text-anchor="middle" x="190.88" y="-120.5" font-family="Helvetica,sans-Serif" font-size="10.00">as608_set_packet_size</text>
</a>
</g>
</g>
<!-- Node1&#45;&gt;Node14 -->
<g id="edge13_Node000001_Node000014" class="edge">
<title>Node1&#45;&gt;Node14</title>
<g id="a_edge13_Node000001_Node000014"><a xlink:title=" ">
<path fill="none" stroke="#63b8ff" d="M47.46,-293.54C53.73,-264.91 75.1,-184.67 124.75,-143 126.05,-141.91 127.4,-140.89 128.81,-139.92"/>
<polygon fill="#63b8ff" stroke="#63b8ff" points="130.37,-143.05 137.36,-135.09 126.93,-136.96 130.37,-143.05"/>
</a>
</g>
</g>
<!-- Node15 -->
<g id="Node000015" class="node">
<title>Node15</title>
<g id="a_Node000015"><a xlink:href="group__as608__basic__driver.html#ga2ca071b6c97c052bb127d5205f7ec250" target="_top" xlink:title="set password">
<polygon fill="white" stroke="#666666" points="245,-96 136.75,-96 136.75,-76 245,-76 245,-96"/>
<text xml:space="preserve" text-anchor="middle" x="190.88" y="-82.5" font-family="Helvetica,sans-Serif" font-size="10.00">as608_set_password</text>
</a>
</g>
</g>
<!-- Node1&#45;&gt;Node15 -->
<g id="edge14_Node000001_Node000015" class="edge">
<title>Node1&#45;&gt;Node15</title>
<g id="a_edge14_Node000001_Node000015"><a xlink:title=" ">
<path fill="none" stroke="#63b8ff" d="M46.38,-293.55C50.1,-260.66 66.11,-158.28 124.75,-105 125.69,-104.15 126.66,-103.34 127.66,-102.56"/>
<polygon fill="#63b8ff" stroke="#63b8ff" points="129.49,-105.54 136.14,-97.3 125.8,-99.6 129.49,-105.54"/>
</a>
</g>
</g>
<!-- Node16 -->
<g id="Node000016" class="node">
<title>Node16</title>
<g id="a_Node000016"><a xlink:href="group__as608__basic__driver.html#ga0c7148f5b278dc2f2a29bf65818c523d" target="_top" xlink:title="enable or disable port">
<polygon fill="white" stroke="#666666" points="232.25,-58 149.5,-58 149.5,-38 232.25,-38 232.25,-58"/>
<text xml:space="preserve" text-anchor="middle" x="190.88" y="-44.5" font-family="Helvetica,sans-Serif" font-size="10.00">as608_set_port</text>
</a>
</g>
</g>
<!-- Node1&#45;&gt;Node16 -->
<g id="edge15_Node000001_Node000016" class="edge">
<title>Node1&#45;&gt;Node16</title>
<g id="a_edge15_Node000001_Node000016"><a xlink:title=" ">
<path fill="none" stroke="#63b8ff" d="M45.61,-293.72C47.04,-257.17 56.87,-132.26 124.75,-67 128.73,-63.17 133.44,-60.11 138.48,-57.66"/>
<polygon fill="#63b8ff" stroke="#63b8ff" points="139.73,-60.93 147.74,-54 137.15,-54.42 139.73,-60.93"/>
</a>
</g>
</g>
<!-- Node17 -->
<g id="Node000017" class="node">
<title>Node17</title>
<g id="a_Node000017"><a xlink:href="group__as608__basic__driver.html#gaebc738e32954f009af2aff15840d99b2" target="_top" xlink:title="verify password">
<polygon fill="white" stroke="#666666" points="250.25,-20 131.5,-20 131.5,0 250.25,0 250.25,-20"/>
<text xml:space="preserve" text-anchor="middle" x="190.88" y="-6.5" font-family="Helvetica,sans-Serif" font-size="10.00">as608_verify_password</text>
</a>
</g>
</g>
<!-- Node1&#45;&gt;Node17 -->
<g id="edge16_Node000001_Node000017" class="edge">
<title>Node1&#45;&gt;Node17</title>
<g id="a_edge16_Node000001_Node000017"><a xlink:title=" ">
<path fill="none" stroke="#63b8ff" d="M45.06,-293.53C44.43,-253.2 47.73,-106.24 124.75,-29 125.5,-28.25 126.27,-27.53 127.07,-26.84"/>
<polygon fill="#63b8ff" stroke="#63b8ff" points="128.9,-29.83 135.19,-21.31 124.95,-24.05 128.9,-29.83"/>
</a>
</g>
</g>
</g>
</svg>
