<?xml version="1.0" encoding="UTF-8" standalone="no"?>
<!DOCTYPE svg PUBLIC "-//W3C//DTD SVG 1.1//EN"
 "http://www.w3.org/Graphics/SVG/1.1/DTD/svg11.dtd">
<!-- Generated by graphviz version 13.1.0 (20250701.0955)
 -->
<!-- Title: as608_advance_upload_image Pages: 1 -->
<svg width="270pt" height="66pt"
 viewBox="0.00 0.00 270.00 66.00" xmlns="http://www.w3.org/2000/svg" xmlns:xlink="http://www.w3.org/1999/xlink">
<g id="graph0" class="graph" transform="scale(1 1) rotate(0) translate(4 62)">
<title>as608_advance_upload_image</title>
<!-- Node1 -->
<g id="Node000001" class="node">
<title>Node1</title>
<g id="a_Node000001"><a xlink:title="advance example upload image">
<polygon fill="#999999" stroke="#666666" points="118,-45 0,-45 0,-13 118,-13 118,-45"/>
<text xml:space="preserve" text-anchor="start" x="8" y="-31.5" font-family="Helvetica,sans-Serif" font-size="10.00">as608_advance_upload</text>
<text xml:space="preserve" text-anchor="middle" x="59" y="-19.5" font-family="Helvetica,sans-Serif" font-size="10.00">_image</text>
</a>
</g>
</g>
<!-- Node2 -->
<g id="Node000002" class="node">
<title>Node2</title>
<g id="a_Node000002"><a xlink:href="group__as608__basic__driver.html#ga63e41a6ac72f9a5940950c829d54ef88" target="_top" xlink:title="get image">
<polygon fill="white" stroke="#666666" points="254,-58 161.5,-58 161.5,-38 254,-38 254,-58"/>
<text xml:space="preserve" text-anchor="middle" x="207.75" y="-44.5" font-family="Helvetica,sans-Serif" font-size="10.00">as608_get_image</text>
</a>
</g>
</g>
<!-- Node1&#45;&gt;Node2 -->
<g id="edge1_Node000001_Node000002" class="edge">
<title>Node1&#45;&gt;Node2</title>
<g id="a_edge1_Node000001_Node000002"><a xlink:title=" ">
<path fill="none" stroke="#63b8ff" d="M118.42,-36.56C128.76,-37.9 139.51,-39.29 149.8,-40.63"/>
<polygon fill="#63b8ff" stroke="#63b8ff" points="149.32,-44.09 159.69,-41.91 150.22,-37.15 149.32,-44.09"/>
</a>
</g>
</g>
<!-- Node3 -->
<g id="Node000003" class="node">
<title>Node3</title>
<g id="a_Node000003"><a xlink:href="group__as608__basic__driver.html#ga38743117661f4110a1e2398d20b0dbea" target="_top" xlink:title="upload image">
<polygon fill="white" stroke="#666666" points="261.5,-20 154,-20 154,0 261.5,0 261.5,-20"/>
<text xml:space="preserve" text-anchor="middle" x="207.75" y="-6.5" font-family="Helvetica,sans-Serif" font-size="10.00">as608_upload_image</text>
</a>
</g>
</g>
<!-- Node1&#45;&gt;Node3 -->
<g id="edge2_Node000001_Node000003" class="edge">
<title>Node1&#45;&gt;Node3</title>
<g id="a_edge2_Node000001_Node000003"><a xlink:title=" ">
<path fill="none" stroke="#63b8ff" d="M118.42,-21.44C126.35,-20.41 134.53,-19.35 142.55,-18.31"/>
<polygon fill="#63b8ff" stroke="#63b8ff" points="142.79,-21.81 152.26,-17.05 141.89,-14.87 142.79,-21.81"/>
</a>
</g>
</g>
</g>
</svg>
