<?xml version="1.0" encoding="UTF-8" standalone="no"?>
<!DOCTYPE svg PUBLIC "-//W3C//DTD SVG 1.1//EN"
 "http://www.w3.org/Graphics/SVG/1.1/DTD/svg11.dtd">
<!-- Generated by graphviz version 13.1.0 (20250701.0955)
 -->
<!-- Title: as608_advance_input_fingerprint Pages: 1 -->
<svg width="287pt" height="268pt"
 viewBox="0.00 0.00 287.00 268.00" xmlns="http://www.w3.org/2000/svg" xmlns:xlink="http://www.w3.org/1999/xlink">
<g id="graph0" class="graph" transform="scale(1 1) rotate(0) translate(4 264)">
<title>as608_advance_input_fingerprint</title>
<!-- Node1 -->
<g id="Node000001" class="node">
<title>Node1</title>
<g id="a_Node000001"><a xlink:title="advance example input fingerprint">
<polygon fill="#999999" stroke="#666666" points="110.5,-146 0,-146 0,-114 110.5,-114 110.5,-146"/>
<text xml:space="preserve" text-anchor="start" x="8" y="-132.5" font-family="Helvetica,sans-Serif" font-size="10.00">as608_advance_input</text>
<text xml:space="preserve" text-anchor="middle" x="55.25" y="-120.5" font-family="Helvetica,sans-Serif" font-size="10.00">_fingerprint</text>
</a>
</g>
</g>
<!-- Node2 -->
<g id="Node000002" class="node">
<title>Node2</title>
<g id="a_Node000002"><a xlink:href="group__as608__basic__driver.html#ga78b1511e28d74b8417e994bfe632f3a7" target="_top" xlink:title="combine feature">
<polygon fill="white" stroke="#666666" points="272.38,-260 152.88,-260 152.88,-240 272.38,-240 272.38,-260"/>
<text xml:space="preserve" text-anchor="middle" x="212.62" y="-246.5" font-family="Helvetica,sans-Serif" font-size="10.00">as608_combine_feature</text>
</a>
</g>
</g>
<!-- Node1&#45;&gt;Node2 -->
<g id="edge1_Node000001_Node000002" class="edge">
<title>Node1&#45;&gt;Node2</title>
<g id="a_edge1_Node000001_Node000002"><a xlink:title=" ">
<path fill="none" stroke="#63b8ff" d="M66.42,-146.2C81.29,-168.56 111.1,-208.67 146.5,-231 148.77,-232.43 151.15,-233.76 153.61,-234.99"/>
<polygon fill="#63b8ff" stroke="#63b8ff" points="152.06,-238.13 162.63,-238.91 154.86,-231.72 152.06,-238.13"/>
</a>
</g>
</g>
<!-- Node3 -->
<g id="Node000003" class="node">
<title>Node3</title>
<g id="a_Node000003"><a xlink:href="group__as608__basic__driver.html#ga2608b9731847803e65e66e312490838d" target="_top" xlink:title="generate feature">
<polygon fill="white" stroke="#666666" points="272.75,-222 152.5,-222 152.5,-202 272.75,-202 272.75,-222"/>
<text xml:space="preserve" text-anchor="middle" x="212.62" y="-208.5" font-family="Helvetica,sans-Serif" font-size="10.00">as608_generate_feature</text>
</a>
</g>
</g>
<!-- Node1&#45;&gt;Node3 -->
<g id="edge2_Node000001_Node000003" class="edge">
<title>Node1&#45;&gt;Node3</title>
<g id="a_edge2_Node000001_Node000003"><a xlink:title=" ">
<path fill="none" stroke="#63b8ff" d="M75.52,-146.26C93.05,-160.34 120.13,-180.37 146.5,-193 150.17,-194.76 154.03,-196.39 157.97,-197.89"/>
<polygon fill="#63b8ff" stroke="#63b8ff" points="156.47,-201.07 167.07,-201.07 158.79,-194.46 156.47,-201.07"/>
</a>
</g>
</g>
<!-- Node4 -->
<g id="Node000004" class="node">
<title>Node4</title>
<g id="a_Node000004"><a xlink:href="group__as608__basic__driver.html#ga63e41a6ac72f9a5940950c829d54ef88" target="_top" xlink:title="get image">
<polygon fill="white" stroke="#666666" points="258.88,-184 166.38,-184 166.38,-164 258.88,-164 258.88,-184"/>
<text xml:space="preserve" text-anchor="middle" x="212.62" y="-170.5" font-family="Helvetica,sans-Serif" font-size="10.00">as608_get_image</text>
</a>
</g>
</g>
<!-- Node1&#45;&gt;Node4 -->
<g id="edge3_Node000001_Node000004" class="edge">
<title>Node1&#45;&gt;Node4</title>
<g id="a_edge3_Node000001_Node000004"><a xlink:title=" ">
<path fill="none" stroke="#63b8ff" d="M110.59,-145.39C127.96,-150.31 147.05,-155.71 163.92,-160.49"/>
<polygon fill="#63b8ff" stroke="#63b8ff" points="162.61,-163.76 173.18,-163.11 164.51,-157.02 162.61,-163.76"/>
</a>
</g>
</g>
<!-- Node5 -->
<g id="Node000005" class="node">
<title>Node5</title>
<g id="a_Node000005"><a xlink:href="group__as608__basic__driver.html#ga5cac7340a8e980cf8650935fb0e42213" target="_top" xlink:title="get valid template number">
<polygon fill="white" stroke="#666666" points="277.25,-146 148,-146 148,-114 277.25,-114 277.25,-146"/>
<text xml:space="preserve" text-anchor="start" x="156" y="-132.5" font-family="Helvetica,sans-Serif" font-size="10.00">as608_get_valid_template</text>
<text xml:space="preserve" text-anchor="middle" x="212.62" y="-120.5" font-family="Helvetica,sans-Serif" font-size="10.00">_number</text>
</a>
</g>
</g>
<!-- Node1&#45;&gt;Node5 -->
<g id="edge4_Node000001_Node000005" class="edge">
<title>Node1&#45;&gt;Node5</title>
<g id="a_edge4_Node000001_Node000005"><a xlink:title=" ">
<path fill="none" stroke="#63b8ff" d="M110.59,-130C118.93,-130 127.66,-130 136.35,-130"/>
<polygon fill="#63b8ff" stroke="#63b8ff" points="136.2,-133.5 146.2,-130 136.2,-126.5 136.2,-133.5"/>
</a>
</g>
</g>
<!-- Node6 -->
<g id="Node000006" class="node">
<title>Node6</title>
<g id="a_Node000006"><a xlink:href="group__as608__interface__driver.html#gab62705efcf1161318e011c632a3f315c" target="_top" xlink:title="interface delay ms">
<polygon fill="white" stroke="#666666" points="278.75,-96 146.5,-96 146.5,-76 278.75,-76 278.75,-96"/>
<text xml:space="preserve" text-anchor="middle" x="212.62" y="-82.5" font-family="Helvetica,sans-Serif" font-size="10.00">as608_interface_delay_ms</text>
</a>
</g>
</g>
<!-- Node1&#45;&gt;Node6 -->
<g id="edge5_Node000001_Node000006" class="edge">
<title>Node1&#45;&gt;Node6</title>
<g id="a_edge5_Node000001_Node000006"><a xlink:title=" ">
<path fill="none" stroke="#63b8ff" d="M110.59,-114.61C127.96,-109.69 147.05,-104.29 163.92,-99.51"/>
<polygon fill="#63b8ff" stroke="#63b8ff" points="164.51,-102.98 173.18,-96.89 162.61,-96.24 164.51,-102.98"/>
</a>
</g>
</g>
<!-- Node7 -->
<g id="Node000007" class="node">
<title>Node7</title>
<g id="a_Node000007"><a xlink:href="group__as608__basic__driver.html#ga7dfa574038d135fcb5679e80a18b1322" target="_top" xlink:title="match feature">
<polygon fill="white" stroke="#666666" points="267.5,-58 157.75,-58 157.75,-38 267.5,-38 267.5,-58"/>
<text xml:space="preserve" text-anchor="middle" x="212.62" y="-44.5" font-family="Helvetica,sans-Serif" font-size="10.00">as608_match_feature</text>
</a>
</g>
</g>
<!-- Node1&#45;&gt;Node7 -->
<g id="edge6_Node000001_Node000007" class="edge">
<title>Node1&#45;&gt;Node7</title>
<g id="a_edge6_Node000001_Node000007"><a xlink:title=" ">
<path fill="none" stroke="#63b8ff" d="M75.52,-113.74C93.05,-99.66 120.13,-79.63 146.5,-67 150.17,-65.24 154.03,-63.61 157.97,-62.11"/>
<polygon fill="#63b8ff" stroke="#63b8ff" points="158.79,-65.54 167.07,-58.93 156.47,-58.93 158.79,-65.54"/>
</a>
</g>
</g>
<!-- Node8 -->
<g id="Node000008" class="node">
<title>Node8</title>
<g id="a_Node000008"><a xlink:href="group__as608__basic__driver.html#ga26defaf8f19fe2838a12b81fc087cc40" target="_top" xlink:title="store feature">
<polygon fill="white" stroke="#666666" points="264.88,-20 160.38,-20 160.38,0 264.88,0 264.88,-20"/>
<text xml:space="preserve" text-anchor="middle" x="212.62" y="-6.5" font-family="Helvetica,sans-Serif" font-size="10.00">as608_store_feature</text>
</a>
</g>
</g>
<!-- Node1&#45;&gt;Node8 -->
<g id="edge7_Node000001_Node000008" class="edge">
<title>Node1&#45;&gt;Node8</title>
<g id="a_edge7_Node000001_Node000008"><a xlink:title=" ">
<path fill="none" stroke="#63b8ff" d="M66.42,-113.8C81.29,-91.44 111.1,-51.33 146.5,-29 148.77,-27.57 151.15,-26.24 153.61,-25.01"/>
<polygon fill="#63b8ff" stroke="#63b8ff" points="154.86,-28.28 162.63,-21.09 152.06,-21.87 154.86,-28.28"/>
</a>
</g>
</g>
</g>
</svg>
