<?xml version="1.0" encoding="UTF-8" standalone="no"?>
<!DOCTYPE svg PUBLIC "-//W3C//DTD SVG 1.1//EN"
 "http://www.w3.org/Graphics/SVG/1.1/DTD/svg11.dtd">
<!-- Generated by graphviz version 13.1.0 (20250701.0955)
 -->
<!-- Title: as608_advance_verify Pages: 1 -->
<svg width="278pt" height="104pt"
 viewBox="0.00 0.00 278.00 104.00" xmlns="http://www.w3.org/2000/svg" xmlns:xlink="http://www.w3.org/1999/xlink">
<g id="graph0" class="graph" transform="scale(1 1) rotate(0) translate(4 100)">
<title>as608_advance_verify</title>
<!-- Node1 -->
<g id="Node000001" class="node">
<title>Node1</title>
<g id="a_Node000001"><a xlink:title="advance example verify">
<polygon fill="#999999" stroke="#666666" points="113.5,-58 0,-58 0,-38 113.5,-38 113.5,-58"/>
<text xml:space="preserve" text-anchor="middle" x="56.75" y="-44.5" font-family="Helvetica,sans-Serif" font-size="10.00">as608_advance_verify</text>
</a>
</g>
</g>
<!-- Node2 -->
<g id="Node000002" class="node">
<title>Node2</title>
<g id="a_Node000002"><a xlink:href="group__as608__basic__driver.html#ga2608b9731847803e65e66e312490838d" target="_top" xlink:title="generate feature">
<polygon fill="white" stroke="#666666" points="269.75,-96 149.5,-96 149.5,-76 269.75,-76 269.75,-96"/>
<text xml:space="preserve" text-anchor="middle" x="209.62" y="-82.5" font-family="Helvetica,sans-Serif" font-size="10.00">as608_generate_feature</text>
</a>
</g>
</g>
<!-- Node1&#45;&gt;Node2 -->
<g id="edge1_Node000001_Node000002" class="edge">
<title>Node1&#45;&gt;Node2</title>
<g id="a_edge1_Node000001_Node000002"><a xlink:title=" ">
<path fill="none" stroke="#63b8ff" d="M99.38,-58.48C116.94,-62.91 137.58,-68.11 156.17,-72.79"/>
<polygon fill="#63b8ff" stroke="#63b8ff" points="155.11,-76.13 165.67,-75.18 156.82,-69.34 155.11,-76.13"/>
</a>
</g>
</g>
<!-- Node3 -->
<g id="Node000003" class="node">
<title>Node3</title>
<g id="a_Node000003"><a xlink:href="group__as608__basic__driver.html#ga63e41a6ac72f9a5940950c829d54ef88" target="_top" xlink:title="get image">
<polygon fill="white" stroke="#666666" points="255.88,-58 163.38,-58 163.38,-38 255.88,-38 255.88,-58"/>
<text xml:space="preserve" text-anchor="middle" x="209.62" y="-44.5" font-family="Helvetica,sans-Serif" font-size="10.00">as608_get_image</text>
</a>
</g>
</g>
<!-- Node1&#45;&gt;Node3 -->
<g id="edge2_Node000001_Node000003" class="edge">
<title>Node1&#45;&gt;Node3</title>
<g id="a_edge2_Node000001_Node000003"><a xlink:title=" ">
<path fill="none" stroke="#63b8ff" d="M113.93,-48C126.37,-48 139.57,-48 152.03,-48"/>
<polygon fill="#63b8ff" stroke="#63b8ff" points="151.71,-51.5 161.71,-48 151.71,-44.5 151.71,-51.5"/>
</a>
</g>
</g>
<!-- Node4 -->
<g id="Node000004" class="node">
<title>Node4</title>
<g id="a_Node000004"><a xlink:href="group__as608__basic__driver.html#ga5d4a53d6ab81ba14d4c7c6dbf23e7004" target="_top" xlink:title="search feature">
<polygon fill="white" stroke="#666666" points="265.62,-20 153.62,-20 153.62,0 265.62,0 265.62,-20"/>
<text xml:space="preserve" text-anchor="middle" x="209.62" y="-6.5" font-family="Helvetica,sans-Serif" font-size="10.00">as608_search_feature</text>
</a>
</g>
</g>
<!-- Node1&#45;&gt;Node4 -->
<g id="edge3_Node000001_Node000004" class="edge">
<title>Node1&#45;&gt;Node4</title>
<g id="a_edge3_Node000001_Node000004"><a xlink:title=" ">
<path fill="none" stroke="#63b8ff" d="M99.38,-37.52C116.94,-33.09 137.58,-27.89 156.17,-23.21"/>
<polygon fill="#63b8ff" stroke="#63b8ff" points="156.82,-26.66 165.67,-20.82 155.11,-19.87 156.82,-26.66"/>
</a>
</g>
</g>
</g>
</svg>
