<?xml version="1.0" encoding="UTF-8" standalone="no"?>
<!DOCTYPE svg PUBLIC "-//W3C//DTD SVG 1.1//EN"
 "http://www.w3.org/Graphics/SVG/1.1/DTD/svg11.dtd">
<!-- Generated by graphviz version 13.1.0 (20250701.0955)
 -->
<!-- Title: as608_advance_init Pages: 1 -->
<svg width="279pt" height="646pt"
 viewBox="0.00 0.00 279.00 646.00" xmlns="http://www.w3.org/2000/svg" xmlns:xlink="http://www.w3.org/1999/xlink">
<g id="graph0" class="graph" transform="scale(1 1) rotate(0) translate(4 642)">
<title>as608_advance_init</title>
<!-- Node1 -->
<g id="Node000001" class="node">
<title>Node1</title>
<g id="a_Node000001"><a xlink:title="advance example init">
<polygon fill="#999999" stroke="#666666" points="102.25,-314 0,-314 0,-294 102.25,-294 102.25,-314"/>
<text xml:space="preserve" text-anchor="middle" x="51.12" y="-300.5" font-family="Helvetica,sans-Serif" font-size="10.00">as608_advance_init</text>
</a>
</g>
</g>
<!-- Node2 -->
<g id="Node000002" class="node">
<title>Node2</title>
<g id="a_Node000002"><a xlink:href="group__as608__basic__driver.html#gaa90b573b594c88ca7927aad4af1f9ca6" target="_top" xlink:title="close the chip">
<polygon fill="white" stroke="#666666" points="239.75,-638 169,-638 169,-618 239.75,-618 239.75,-638"/>
<text xml:space="preserve" text-anchor="middle" x="204.38" y="-624.5" font-family="Helvetica,sans-Serif" font-size="10.00">as608_deinit</text>
</a>
</g>
</g>
<!-- Node1&#45;&gt;Node2 -->
<g id="edge1_Node000001_Node000002" class="edge">
<title>Node1&#45;&gt;Node2</title>
<g id="a_edge1_Node000001_Node000002"><a xlink:title=" ">
<path fill="none" stroke="#63b8ff" d="M51.72,-314.41C50.65,-357.34 52.45,-522.45 138.25,-609 143.65,-614.45 150.53,-618.36 157.77,-621.15"/>
<polygon fill="#63b8ff" stroke="#63b8ff" points="156.49,-624.42 167.08,-624.06 158.57,-617.74 156.49,-624.42"/>
</a>
</g>
</g>
<!-- Node3 -->
<g id="Node000003" class="node">
<title>Node3</title>
<g id="a_Node000003"><a xlink:href="group__as608__basic__driver.html#ga135126636cda72875fb0b4fae3fd099c" target="_top" xlink:title="initialize the chip">
<polygon fill="white" stroke="#666666" points="234.5,-600 174.25,-600 174.25,-580 234.5,-580 234.5,-600"/>
<text xml:space="preserve" text-anchor="middle" x="204.38" y="-586.5" font-family="Helvetica,sans-Serif" font-size="10.00">as608_init</text>
</a>
</g>
</g>
<!-- Node1&#45;&gt;Node3 -->
<g id="edge2_Node000001_Node000003" class="edge">
<title>Node1&#45;&gt;Node3</title>
<g id="a_edge2_Node000001_Node000003"><a xlink:title=" ">
<path fill="none" stroke="#63b8ff" d="M52.21,-314.46C53.11,-354.11 61.77,-496.65 138.25,-571 145.03,-577.6 153.97,-581.92 163.05,-584.76"/>
<polygon fill="#63b8ff" stroke="#63b8ff" points="162.03,-588.11 172.58,-587.15 163.74,-581.32 162.03,-588.11"/>
</a>
</g>
</g>
<!-- Node4 -->
<g id="Node000004" class="node">
<title>Node4</title>
<g id="a_Node000004"><a xlink:href="group__as608__interface__driver.html#ga824c6ce7820807580f5f130acf581540" target="_top" xlink:title="interface print format data">
<polygon fill="white" stroke="#666666" points="262.62,-562 146.12,-562 146.12,-530 262.62,-530 262.62,-562"/>
<text xml:space="preserve" text-anchor="start" x="154.12" y="-548.5" font-family="Helvetica,sans-Serif" font-size="10.00">as608_interface_debug</text>
<text xml:space="preserve" text-anchor="middle" x="204.38" y="-536.5" font-family="Helvetica,sans-Serif" font-size="10.00">_print</text>
</a>
</g>
</g>
<!-- Node1&#45;&gt;Node4 -->
<g id="edge3_Node000001_Node000004" class="edge">
<title>Node1&#45;&gt;Node4</title>
<g id="a_edge3_Node000001_Node000004"><a xlink:title=" ">
<path fill="none" stroke="#63b8ff" d="M53.28,-314.2C57.65,-348.32 76.28,-459.73 138.25,-521 138.86,-521.61 139.49,-522.2 140.14,-522.78"/>
<polygon fill="#63b8ff" stroke="#63b8ff" points="137.91,-525.49 148.03,-528.63 142.08,-519.86 137.91,-525.49"/>
</a>
</g>
</g>
<!-- Node5 -->
<g id="Node000005" class="node">
<title>Node5</title>
<g id="a_Node000005"><a xlink:href="group__as608__interface__driver.html#gab62705efcf1161318e011c632a3f315c" target="_top" xlink:title="interface delay ms">
<polygon fill="white" stroke="#666666" points="270.5,-512 138.25,-512 138.25,-492 270.5,-492 270.5,-512"/>
<text xml:space="preserve" text-anchor="middle" x="204.38" y="-498.5" font-family="Helvetica,sans-Serif" font-size="10.00">as608_interface_delay_ms</text>
</a>
</g>
</g>
<!-- Node1&#45;&gt;Node5 -->
<g id="edge4_Node000001_Node000005" class="edge">
<title>Node1&#45;&gt;Node5</title>
<g id="a_edge4_Node000001_Node000005"><a xlink:title=" ">
<path fill="none" stroke="#63b8ff" d="M54.03,-314.29C60.23,-344.86 82.74,-435.95 138.25,-483 139.51,-484.07 140.83,-485.08 142.2,-486.04"/>
<polygon fill="#63b8ff" stroke="#63b8ff" points="140.09,-488.86 150.51,-490.79 143.57,-482.78 140.09,-488.86"/>
</a>
</g>
</g>
<!-- Node6 -->
<g id="Node000006" class="node">
<title>Node6</title>
<g id="a_Node000006"><a xlink:href="group__as608__interface__driver.html#ga53ba498e5c1ed743430c342253e9e3cc" target="_top" xlink:title="interface uart deinit">
<polygon fill="white" stroke="#666666" points="257.75,-474 151,-474 151,-442 257.75,-442 257.75,-474"/>
<text xml:space="preserve" text-anchor="start" x="159" y="-460.5" font-family="Helvetica,sans-Serif" font-size="10.00">as608_interface_uart</text>
<text xml:space="preserve" text-anchor="middle" x="204.38" y="-448.5" font-family="Helvetica,sans-Serif" font-size="10.00">_deinit</text>
</a>
</g>
</g>
<!-- Node1&#45;&gt;Node6 -->
<g id="edge5_Node000001_Node000006" class="edge">
<title>Node1&#45;&gt;Node6</title>
<g id="a_edge5_Node000001_Node000006"><a xlink:title=" ">
<path fill="none" stroke="#63b8ff" d="M56.33,-314.26C66.7,-338.35 95.76,-399.04 138.25,-433 139.39,-433.91 140.58,-434.8 141.79,-435.65"/>
<polygon fill="#63b8ff" stroke="#63b8ff" points="139.94,-438.63 150.3,-440.84 143.59,-432.65 139.94,-438.63"/>
</a>
</g>
</g>
<!-- Node7 -->
<g id="Node000007" class="node">
<title>Node7</title>
<g id="a_Node000007"><a xlink:href="group__as608__interface__driver.html#ga1666f8bf2083160ef8765d7f889f1681" target="_top" xlink:title="interface uart flush">
<polygon fill="white" stroke="#666666" points="257.75,-424 151,-424 151,-392 257.75,-392 257.75,-424"/>
<text xml:space="preserve" text-anchor="start" x="159" y="-410.5" font-family="Helvetica,sans-Serif" font-size="10.00">as608_interface_uart</text>
<text xml:space="preserve" text-anchor="middle" x="204.38" y="-398.5" font-family="Helvetica,sans-Serif" font-size="10.00">_flush</text>
</a>
</g>
</g>
<!-- Node1&#45;&gt;Node7 -->
<g id="edge6_Node000001_Node000007" class="edge">
<title>Node1&#45;&gt;Node7</title>
<g id="a_edge6_Node000001_Node000007"><a xlink:title=" ">
<path fill="none" stroke="#63b8ff" d="M60.96,-314.3C75.57,-330.78 106.34,-363.24 138.25,-383 140.14,-384.17 142.1,-385.3 144.1,-386.4"/>
<polygon fill="#63b8ff" stroke="#63b8ff" points="142.52,-389.52 153.04,-390.85 145.65,-383.26 142.52,-389.52"/>
</a>
</g>
</g>
<!-- Node8 -->
<g id="Node000008" class="node">
<title>Node8</title>
<g id="a_Node000008"><a xlink:href="group__as608__interface__driver.html#ga082db92e383a0b84dbd457a77c349742" target="_top" xlink:title="interface uart init">
<polygon fill="white" stroke="#666666" points="266.75,-374 142,-374 142,-354 266.75,-354 266.75,-374"/>
<text xml:space="preserve" text-anchor="middle" x="204.38" y="-360.5" font-family="Helvetica,sans-Serif" font-size="10.00">as608_interface_uart_init</text>
</a>
</g>
</g>
<!-- Node1&#45;&gt;Node8 -->
<g id="edge7_Node000001_Node000008" class="edge">
<title>Node1&#45;&gt;Node8</title>
<g id="a_edge7_Node000001_Node000008"><a xlink:title=" ">
<path fill="none" stroke="#63b8ff" d="M71.57,-314.36C88.78,-323.26 114.73,-336.04 138.25,-345 142.96,-346.79 147.91,-348.52 152.9,-350.15"/>
<polygon fill="#63b8ff" stroke="#63b8ff" points="151.74,-353.46 162.33,-353.1 153.83,-346.77 151.74,-353.46"/>
</a>
</g>
</g>
<!-- Node9 -->
<g id="Node000009" class="node">
<title>Node9</title>
<g id="a_Node000009"><a xlink:href="group__as608__interface__driver.html#ga7e28e5a1168028db3e03098750171791" target="_top" xlink:title="interface uart read">
<polygon fill="white" stroke="#666666" points="269.75,-336 139,-336 139,-316 269.75,-316 269.75,-336"/>
<text xml:space="preserve" text-anchor="middle" x="204.38" y="-322.5" font-family="Helvetica,sans-Serif" font-size="10.00">as608_interface_uart_read</text>
</a>
</g>
</g>
<!-- Node1&#45;&gt;Node9 -->
<g id="edge8_Node000001_Node000009" class="edge">
<title>Node1&#45;&gt;Node9</title>
<g id="a_edge8_Node000001_Node000009"><a xlink:title=" ">
<path fill="none" stroke="#63b8ff" d="M102.49,-311.33C110.56,-312.5 119.06,-313.74 127.56,-314.97"/>
<polygon fill="#63b8ff" stroke="#63b8ff" points="126.8,-318.4 137.2,-316.38 127.81,-311.47 126.8,-318.4"/>
</a>
</g>
</g>
<!-- Node10 -->
<g id="Node000010" class="node">
<title>Node10</title>
<g id="a_Node000010"><a xlink:href="group__as608__interface__driver.html#ga89af6772e49eb0713c7c6f5d3398c06f" target="_top" xlink:title="interface uart write">
<polygon fill="white" stroke="#666666" points="257.75,-298 151,-298 151,-266 257.75,-266 257.75,-298"/>
<text xml:space="preserve" text-anchor="start" x="159" y="-284.5" font-family="Helvetica,sans-Serif" font-size="10.00">as608_interface_uart</text>
<text xml:space="preserve" text-anchor="middle" x="204.38" y="-272.5" font-family="Helvetica,sans-Serif" font-size="10.00">_write</text>
</a>
</g>
</g>
<!-- Node1&#45;&gt;Node10 -->
<g id="edge9_Node000001_Node000010" class="edge">
<title>Node1&#45;&gt;Node10</title>
<g id="a_edge9_Node000001_Node000010"><a xlink:title=" ">
<path fill="none" stroke="#63b8ff" d="M102.49,-296.67C114.33,-294.95 127.11,-293.09 139.46,-291.3"/>
<polygon fill="#63b8ff" stroke="#63b8ff" points="139.75,-294.79 149.14,-289.89 138.74,-287.86 139.75,-294.79"/>
</a>
</g>
</g>
<!-- Node11 -->
<g id="Node000011" class="node">
<title>Node11</title>
<g id="a_Node000011"><a xlink:href="group__as608__basic__driver.html#ga9619783c1cae3de43ff2a341e0d3364c" target="_top" xlink:title="set baud rate">
<polygon fill="white" stroke="#666666" points="258.88,-248 149.88,-248 149.88,-228 258.88,-228 258.88,-248"/>
<text xml:space="preserve" text-anchor="middle" x="204.38" y="-234.5" font-family="Helvetica,sans-Serif" font-size="10.00">as608_set_baud_rate</text>
</a>
</g>
</g>
<!-- Node1&#45;&gt;Node11 -->
<g id="edge10_Node000001_Node000011" class="edge">
<title>Node1&#45;&gt;Node11</title>
<g id="a_edge10_Node000001_Node000011"><a xlink:title=" ">
<path fill="none" stroke="#63b8ff" d="M68.75,-293.52C85.72,-283.16 113.06,-267.4 138.25,-257 142.6,-255.2 147.17,-253.51 151.8,-251.92"/>
<polygon fill="#63b8ff" stroke="#63b8ff" points="152.73,-255.3 161.17,-248.89 150.58,-248.64 152.73,-255.3"/>
</a>
</g>
</g>
<!-- Node12 -->
<g id="Node000012" class="node">
<title>Node12</title>
<g id="a_Node000012"><a xlink:href="group__as608__basic__driver.html#gacd33ee707571f0a30e7b021855204261" target="_top" xlink:title="set the chip address">
<polygon fill="white" stroke="#666666" points="266.38,-210 142.38,-210 142.38,-190 266.38,-190 266.38,-210"/>
<text xml:space="preserve" text-anchor="middle" x="204.38" y="-196.5" font-family="Helvetica,sans-Serif" font-size="10.00">as608_set_chip_address</text>
</a>
</g>
</g>
<!-- Node1&#45;&gt;Node12 -->
<g id="edge11_Node000001_Node000012" class="edge">
<title>Node1&#45;&gt;Node12</title>
<g id="a_edge11_Node000001_Node000012"><a xlink:title=" ">
<path fill="none" stroke="#63b8ff" d="M59.7,-293.72C73.39,-275.86 104.02,-239.12 138.25,-219 140.87,-217.46 143.63,-216.03 146.47,-214.72"/>
<polygon fill="#63b8ff" stroke="#63b8ff" points="147.65,-218.02 155.59,-211 145.01,-211.54 147.65,-218.02"/>
</a>
</g>
</g>
<!-- Node13 -->
<g id="Node000013" class="node">
<title>Node13</title>
<g id="a_Node000013"><a xlink:href="group__as608__basic__driver.html#ga9378d6e2c6ad9c944994428adff4e684" target="_top" xlink:title="set level">
<polygon fill="white" stroke="#666666" points="247.62,-172 161.12,-172 161.12,-152 247.62,-152 247.62,-172"/>
<text xml:space="preserve" text-anchor="middle" x="204.38" y="-158.5" font-family="Helvetica,sans-Serif" font-size="10.00">as608_set_level</text>
</a>
</g>
</g>
<!-- Node1&#45;&gt;Node13 -->
<g id="edge12_Node000001_Node000013" class="edge">
<title>Node1&#45;&gt;Node13</title>
<g id="a_edge12_Node000001_Node000013"><a xlink:title=" ">
<path fill="none" stroke="#63b8ff" d="M56.45,-293.63C66.86,-269.94 95.66,-211.53 138.25,-181 141.91,-178.37 145.94,-176.11 150.13,-174.15"/>
<polygon fill="#63b8ff" stroke="#63b8ff" points="151.4,-177.42 159.4,-170.47 148.81,-170.91 151.4,-177.42"/>
</a>
</g>
</g>
<!-- Node14 -->
<g id="Node000014" class="node">
<title>Node14</title>
<g id="a_Node000014"><a xlink:href="group__as608__basic__driver.html#ga0f46ecfb141f987b80a1281b8622d81d" target="_top" xlink:title="set packet size">
<polygon fill="white" stroke="#666666" points="263.75,-134 145,-134 145,-114 263.75,-114 263.75,-134"/>
<text xml:space="preserve" text-anchor="middle" x="204.38" y="-120.5" font-family="Helvetica,sans-Serif" font-size="10.00">as608_set_packet_size</text>
</a>
</g>
</g>
<!-- Node1&#45;&gt;Node14 -->
<g id="edge13_Node000001_Node000014" class="edge">
<title>Node1&#45;&gt;Node14</title>
<g id="a_edge13_Node000001_Node000014"><a xlink:title=" ">
<path fill="none" stroke="#63b8ff" d="M54.67,-293.52C62.2,-264.87 87.05,-184.55 138.25,-143 139.56,-141.93 140.94,-140.93 142.36,-139.98"/>
<polygon fill="#63b8ff" stroke="#63b8ff" points="143.91,-143.12 150.97,-135.22 140.52,-136.99 143.91,-143.12"/>
</a>
</g>
</g>
<!-- Node15 -->
<g id="Node000015" class="node">
<title>Node15</title>
<g id="a_Node000015"><a xlink:href="group__as608__basic__driver.html#ga2ca071b6c97c052bb127d5205f7ec250" target="_top" xlink:title="set password">
<polygon fill="white" stroke="#666666" points="258.5,-96 150.25,-96 150.25,-76 258.5,-76 258.5,-96"/>
<text xml:space="preserve" text-anchor="middle" x="204.38" y="-82.5" font-family="Helvetica,sans-Serif" font-size="10.00">as608_set_password</text>
</a>
</g>
</g>
<!-- Node1&#45;&gt;Node15 -->
<g id="edge14_Node000001_Node000015" class="edge">
<title>Node1&#45;&gt;Node15</title>
<g id="a_edge14_Node000001_Node000015"><a xlink:title=" ">
<path fill="none" stroke="#63b8ff" d="M53.51,-293.53C58.43,-260.59 78.13,-158.06 138.25,-105 139.34,-104.04 140.48,-103.12 141.66,-102.25"/>
<polygon fill="#63b8ff" stroke="#63b8ff" points="143.27,-105.37 150.05,-97.23 139.68,-99.36 143.27,-105.37"/>
</a>
</g>
</g>
<!-- Node16 -->
<g id="Node000016" class="node">
<title>Node16</title>
<g id="a_Node000016"><a xlink:href="group__as608__basic__driver.html#ga0c7148f5b278dc2f2a29bf65818c523d" target="_top" xlink:title="enable or disable port">
<polygon fill="white" stroke="#666666" points="245.75,-58 163,-58 163,-38 245.75,-38 245.75,-58"/>
<text xml:space="preserve" text-anchor="middle" x="204.38" y="-44.5" font-family="Helvetica,sans-Serif" font-size="10.00">as608_set_port</text>
</a>
</g>
</g>
<!-- Node1&#45;&gt;Node16 -->
<g id="edge15_Node000001_Node000016" class="edge">
<title>Node1&#45;&gt;Node16</title>
<g id="a_edge15_Node000001_Node000016"><a xlink:title=" ">
<path fill="none" stroke="#63b8ff" d="M52.69,-293.7C55.25,-257.08 68.94,-131.97 138.25,-67 142.28,-63.22 147.02,-60.19 152.07,-57.76"/>
<polygon fill="#63b8ff" stroke="#63b8ff" points="153.33,-61.03 161.35,-54.12 150.77,-54.51 153.33,-61.03"/>
</a>
</g>
</g>
<!-- Node17 -->
<g id="Node000017" class="node">
<title>Node17</title>
<g id="a_Node000017"><a xlink:href="group__as608__basic__driver.html#gaebc738e32954f009af2aff15840d99b2" target="_top" xlink:title="verify password">
<polygon fill="white" stroke="#666666" points="263.75,-20 145,-20 145,0 263.75,0 263.75,-20"/>
<text xml:space="preserve" text-anchor="middle" x="204.38" y="-6.5" font-family="Helvetica,sans-Serif" font-size="10.00">as608_verify_password</text>
</a>
</g>
</g>
<!-- Node1&#45;&gt;Node17 -->
<g id="edge16_Node000001_Node000017" class="edge">
<title>Node1&#45;&gt;Node17</title>
<g id="a_edge16_Node000001_Node000017"><a xlink:title=" ">
<path fill="none" stroke="#63b8ff" d="M52.1,-293.51C52.57,-253.1 59.84,-105.88 138.25,-29 139.13,-28.13 140.05,-27.31 141.01,-26.52"/>
<polygon fill="#63b8ff" stroke="#63b8ff" points="142.65,-29.63 149.07,-21.21 138.8,-23.78 142.65,-29.63"/>
</a>
</g>
</g>
</g>
</svg>
