<?xml version="1.0" encoding="UTF-8" standalone="no"?>
<!DOCTYPE svg PUBLIC "-//W3C//DTD SVG 1.1//EN"
 "http://www.w3.org/Graphics/SVG/1.1/DTD/svg11.dtd">
<!-- Generated by graphviz version 13.1.0 (20250701.0955)
 -->
<!-- Title: as608_basic_input_fingerprint Pages: 1 -->
<svg width="321pt" height="268pt"
 viewBox="0.00 0.00 321.00 268.00" xmlns="http://www.w3.org/2000/svg" xmlns:xlink="http://www.w3.org/1999/xlink">
<g id="graph0" class="graph" transform="scale(1 1) rotate(0) translate(4 264)">
<title>as608_basic_input_fingerprint</title>
<!-- Node1 -->
<g id="Node000001" class="node">
<title>Node1</title>
<g id="a_Node000001"><a xlink:title="basic example input fingerprint">
<polygon fill="#999999" stroke="#666666" points="145,-140 0,-140 0,-120 145,-120 145,-140"/>
<text xml:space="preserve" text-anchor="middle" x="72.5" y="-126.5" font-family="Helvetica,sans-Serif" font-size="10.00">as608_basic_input_fingerprint</text>
</a>
</g>
</g>
<!-- Node2 -->
<g id="Node000002" class="node">
<title>Node2</title>
<g id="a_Node000002"><a xlink:href="group__as608__basic__driver.html#ga78b1511e28d74b8417e994bfe632f3a7" target="_top" xlink:title="combine feature">
<polygon fill="white" stroke="#666666" points="306.88,-260 187.38,-260 187.38,-240 306.88,-240 306.88,-260"/>
<text xml:space="preserve" text-anchor="middle" x="247.12" y="-246.5" font-family="Helvetica,sans-Serif" font-size="10.00">as608_combine_feature</text>
</a>
</g>
</g>
<!-- Node1&#45;&gt;Node2 -->
<g id="edge1_Node000001_Node000002" class="edge">
<title>Node1&#45;&gt;Node2</title>
<g id="a_edge1_Node000001_Node000002"><a xlink:title=" ">
<path fill="none" stroke="#63b8ff" d="M81.52,-140.25C97.96,-160.59 137.64,-206.23 181,-231 183.78,-232.59 186.7,-234.05 189.71,-235.4"/>
<polygon fill="#63b8ff" stroke="#63b8ff" points="188.17,-238.56 198.75,-239.01 190.76,-232.05 188.17,-238.56"/>
</a>
</g>
</g>
<!-- Node3 -->
<g id="Node000003" class="node">
<title>Node3</title>
<g id="a_Node000003"><a xlink:href="group__as608__basic__driver.html#ga2608b9731847803e65e66e312490838d" target="_top" xlink:title="generate feature">
<polygon fill="white" stroke="#666666" points="307.25,-222 187,-222 187,-202 307.25,-202 307.25,-222"/>
<text xml:space="preserve" text-anchor="middle" x="247.12" y="-208.5" font-family="Helvetica,sans-Serif" font-size="10.00">as608_generate_feature</text>
</a>
</g>
</g>
<!-- Node1&#45;&gt;Node3 -->
<g id="edge2_Node000001_Node000003" class="edge">
<title>Node1&#45;&gt;Node3</title>
<g id="a_edge2_Node000001_Node000003"><a xlink:title=" ">
<path fill="none" stroke="#63b8ff" d="M88.54,-140.43C108.77,-154.08 146.24,-178.02 181,-193 185.08,-194.76 189.37,-196.41 193.73,-197.95"/>
<polygon fill="#63b8ff" stroke="#63b8ff" points="192.56,-201.25 203.15,-201.07 194.76,-194.61 192.56,-201.25"/>
</a>
</g>
</g>
<!-- Node4 -->
<g id="Node000004" class="node">
<title>Node4</title>
<g id="a_Node000004"><a xlink:href="group__as608__basic__driver.html#ga63e41a6ac72f9a5940950c829d54ef88" target="_top" xlink:title="get image">
<polygon fill="white" stroke="#666666" points="293.38,-184 200.88,-184 200.88,-164 293.38,-164 293.38,-184"/>
<text xml:space="preserve" text-anchor="middle" x="247.12" y="-170.5" font-family="Helvetica,sans-Serif" font-size="10.00">as608_get_image</text>
</a>
</g>
</g>
<!-- Node1&#45;&gt;Node4 -->
<g id="edge3_Node000001_Node000004" class="edge">
<title>Node1&#45;&gt;Node4</title>
<g id="a_edge3_Node000001_Node000004"><a xlink:title=" ">
<path fill="none" stroke="#63b8ff" d="M114.41,-140.43C138.29,-146.52 168.66,-154.26 194.22,-160.77"/>
<polygon fill="#63b8ff" stroke="#63b8ff" points="193.19,-164.12 203.74,-163.2 194.92,-157.34 193.19,-164.12"/>
</a>
</g>
</g>
<!-- Node5 -->
<g id="Node000005" class="node">
<title>Node5</title>
<g id="a_Node000005"><a xlink:href="group__as608__basic__driver.html#ga5cac7340a8e980cf8650935fb0e42213" target="_top" xlink:title="get valid template number">
<polygon fill="white" stroke="#666666" points="311.75,-146 182.5,-146 182.5,-114 311.75,-114 311.75,-146"/>
<text xml:space="preserve" text-anchor="start" x="190.5" y="-132.5" font-family="Helvetica,sans-Serif" font-size="10.00">as608_get_valid_template</text>
<text xml:space="preserve" text-anchor="middle" x="247.12" y="-120.5" font-family="Helvetica,sans-Serif" font-size="10.00">_number</text>
</a>
</g>
</g>
<!-- Node1&#45;&gt;Node5 -->
<g id="edge4_Node000001_Node000005" class="edge">
<title>Node1&#45;&gt;Node5</title>
<g id="a_edge4_Node000001_Node000005"><a xlink:title=" ">
<path fill="none" stroke="#63b8ff" d="M145.21,-130C153.62,-130 162.21,-130 170.67,-130"/>
<polygon fill="#63b8ff" stroke="#63b8ff" points="170.57,-133.5 180.57,-130 170.57,-126.5 170.57,-133.5"/>
</a>
</g>
</g>
<!-- Node6 -->
<g id="Node000006" class="node">
<title>Node6</title>
<g id="a_Node000006"><a xlink:href="group__as608__interface__driver.html#gab62705efcf1161318e011c632a3f315c" target="_top" xlink:title="interface delay ms">
<polygon fill="white" stroke="#666666" points="313.25,-96 181,-96 181,-76 313.25,-76 313.25,-96"/>
<text xml:space="preserve" text-anchor="middle" x="247.12" y="-82.5" font-family="Helvetica,sans-Serif" font-size="10.00">as608_interface_delay_ms</text>
</a>
</g>
</g>
<!-- Node1&#45;&gt;Node6 -->
<g id="edge5_Node000001_Node000006" class="edge">
<title>Node1&#45;&gt;Node6</title>
<g id="a_edge5_Node000001_Node000006"><a xlink:title=" ">
<path fill="none" stroke="#63b8ff" d="M114.41,-119.57C138.29,-113.48 168.66,-105.74 194.22,-99.23"/>
<polygon fill="#63b8ff" stroke="#63b8ff" points="194.92,-102.66 203.74,-96.8 193.19,-95.88 194.92,-102.66"/>
</a>
</g>
</g>
<!-- Node7 -->
<g id="Node000007" class="node">
<title>Node7</title>
<g id="a_Node000007"><a xlink:href="group__as608__basic__driver.html#ga7dfa574038d135fcb5679e80a18b1322" target="_top" xlink:title="match feature">
<polygon fill="white" stroke="#666666" points="302,-58 192.25,-58 192.25,-38 302,-38 302,-58"/>
<text xml:space="preserve" text-anchor="middle" x="247.12" y="-44.5" font-family="Helvetica,sans-Serif" font-size="10.00">as608_match_feature</text>
</a>
</g>
</g>
<!-- Node1&#45;&gt;Node7 -->
<g id="edge6_Node000001_Node000007" class="edge">
<title>Node1&#45;&gt;Node7</title>
<g id="a_edge6_Node000001_Node000007"><a xlink:title=" ">
<path fill="none" stroke="#63b8ff" d="M88.54,-119.57C108.77,-105.92 146.24,-81.98 181,-67 185.08,-65.24 189.37,-63.59 193.73,-62.05"/>
<polygon fill="#63b8ff" stroke="#63b8ff" points="194.76,-65.39 203.15,-58.93 192.56,-58.75 194.76,-65.39"/>
</a>
</g>
</g>
<!-- Node8 -->
<g id="Node000008" class="node">
<title>Node8</title>
<g id="a_Node000008"><a xlink:href="group__as608__basic__driver.html#ga26defaf8f19fe2838a12b81fc087cc40" target="_top" xlink:title="store feature">
<polygon fill="white" stroke="#666666" points="299.38,-20 194.88,-20 194.88,0 299.38,0 299.38,-20"/>
<text xml:space="preserve" text-anchor="middle" x="247.12" y="-6.5" font-family="Helvetica,sans-Serif" font-size="10.00">as608_store_feature</text>
</a>
</g>
</g>
<!-- Node1&#45;&gt;Node8 -->
<g id="edge7_Node000001_Node000008" class="edge">
<title>Node1&#45;&gt;Node8</title>
<g id="a_edge7_Node000001_Node000008"><a xlink:title=" ">
<path fill="none" stroke="#63b8ff" d="M81.52,-119.75C97.96,-99.41 137.64,-53.77 181,-29 183.78,-27.41 186.7,-25.95 189.71,-24.6"/>
<polygon fill="#63b8ff" stroke="#63b8ff" points="190.76,-27.95 198.75,-20.99 188.17,-21.44 190.76,-27.95"/>
</a>
</g>
</g>
</g>
</svg>
